<svg width="210" height="28" viewBox="0 0 323 42" fill="none" xmlns="http://www.w3.org/2000/svg">
<path fill-rule="evenodd" clip-rule="evenodd" d="M32.455 0.907462C31.2451 -0.302487 29.2833 -0.302487 28.0732 0.907462L24.5679 4.41279C22.39 6.59074 18.8589 6.59074 16.681 4.41279L13.6138 1.34563C12.4039 0.135689 10.4422 0.135689 9.23219 1.34563C8.02221 2.55561 8.02221 4.51735 9.23219 5.72729L12.2993 8.79442C16.8972 13.3923 24.3518 13.3923 28.9497 8.79442L32.455 5.28911C33.6648 4.07917 33.6648 2.11744 32.455 0.907462Z" fill="#D06348"/>
<path fill-rule="evenodd" clip-rule="evenodd" d="M8.79518 40.3422C10.0051 41.5521 11.9669 41.5521 13.1768 40.3422L16.6822 36.837C18.8601 34.6591 22.3912 34.6591 24.5691 36.837L27.6362 39.9041C28.8464 41.114 30.8078 41.114 32.018 39.9041C33.2279 38.6943 33.2279 36.7325 32.018 35.5224L28.9509 32.4552C24.353 27.8574 16.8983 27.8574 12.3005 32.4552L8.79518 35.9604C7.5852 37.1706 7.5852 39.1323 8.79518 40.3422Z" fill="#D06348"/>
<path fill-rule="evenodd" clip-rule="evenodd" d="M0.907462 32.4565C-0.302487 31.2466 -0.302487 29.2848 0.907462 28.0747L4.41279 24.5694C6.59074 22.3916 6.59074 18.8603 4.41279 16.6825L1.34563 13.6153C0.13569 12.4054 0.13569 10.4436 1.34563 9.23365C2.55562 8.02368 4.51735 8.02368 5.72729 9.23365L8.79442 12.3009C13.3923 16.8987 13.3923 24.3534 8.79442 28.9512L5.28915 32.4565C4.07917 33.6663 2.11744 33.6663 0.907462 32.4565Z" fill="#D06348"/>
<path d="M30.2992 20.838C30.2992 21.4843 30.4298 22.1236 30.691 22.7561C30.9661 23.3886 31.3304 23.9592 31.7842 24.468C32.2516 24.963 32.7948 25.3686 33.4135 25.6849C34.0323 26.0011 34.6991 26.1661 35.4141 26.1799C36.1566 26.1799 36.8098 26.0905 37.3735 25.9117C37.951 25.7192 38.5285 25.3824 39.106 24.9011C39.381 24.6673 39.6835 24.4543 40.0135 24.2617C40.3572 24.0555 40.7284 23.9523 41.1272 23.9523C41.3609 23.9523 41.6084 24.0074 41.8697 24.1174C42.1309 24.2136 42.3991 24.3786 42.674 24.6124C42.9078 24.8186 43.0797 25.0661 43.1896 25.3549C43.3134 25.6299 43.3684 25.9255 43.3546 26.2417C43.3546 26.5442 43.2859 26.8467 43.1484 27.1492C43.0246 27.4517 42.8322 27.7404 42.5709 28.0155C41.7184 28.8817 40.7009 29.5417 39.5185 29.9954C38.3497 30.4492 37.1191 30.676 35.8266 30.676C34.4516 30.676 33.1591 30.4285 31.9492 29.9335C30.7392 29.4248 29.6804 28.7305 28.7729 27.8505C27.8655 26.9704 27.1504 25.9393 26.628 24.7567C26.1055 23.5605 25.8442 22.2749 25.8442 20.8999C25.858 20.8861 25.8649 20.8724 25.8649 20.8587H25.8442C25.8442 19.4836 26.1055 18.1981 26.628 17.0018C27.1504 15.7918 27.8655 14.7469 28.7729 13.8669C29.6804 12.9731 30.7392 12.2719 31.9492 11.7631C33.1591 11.2544 34.4516 11 35.8266 11C37.1191 11 38.3497 11.22 39.5185 11.66C40.7009 12.0862 41.7184 12.7325 42.5709 13.5988C42.8322 13.86 43.0315 14.1487 43.169 14.4649C43.3066 14.7675 43.3753 15.0768 43.3753 15.393C43.3891 15.6956 43.334 15.9912 43.2103 16.2799C43.0865 16.555 42.9009 16.8025 42.6534 17.0224C42.3784 17.2562 42.1172 17.4212 41.8697 17.5174C41.6222 17.6137 41.3815 17.6618 41.1478 17.6618C40.7491 17.6618 40.3778 17.5656 40.0341 17.3731C39.7041 17.1668 39.3947 16.9468 39.106 16.713C38.5285 16.2731 37.9579 15.9568 37.3941 15.7643C36.8304 15.5719 36.2391 15.4756 35.6203 15.4756C34.9192 15.4756 34.2454 15.6199 33.5992 15.9087C32.9529 16.1974 32.3892 16.5893 31.9079 17.0843C31.4266 17.5793 31.0417 18.1499 30.7529 18.7962C30.4642 19.4424 30.3198 20.1162 30.3198 20.8174L30.2992 20.838Z" fill="#7C7C7C"/>
<path d="M52.4755 27.9742C52.4755 28.2767 52.4206 28.5654 52.3105 28.8404C52.2006 29.1154 52.0424 29.3492 51.8362 29.5417C51.6437 29.7342 51.4168 29.8923 51.1556 30.016C50.8943 30.1261 50.6125 30.181 50.31 30.181C49.9937 30.181 49.6912 30.1261 49.4025 30.016C49.1275 29.8923 48.8869 29.7342 48.6806 29.5417C48.4744 29.3492 48.3094 29.1154 48.1856 28.8404C48.0619 28.5654 48 28.2767 48 27.9742V21.3124C48 19.8961 48.2681 18.5624 48.8044 17.3112C49.3543 16.0599 50.0968 14.9668 51.0319 14.0319C51.9668 13.0968 53.06 12.3613 54.3112 11.825C55.5624 11.275 56.8893 11 58.2917 11H58.333C59.0755 11 59.6461 11.2131 60.0448 11.6394C60.4573 12.0519 60.6636 12.5812 60.6636 13.2275C60.6636 13.5437 60.6017 13.8394 60.478 14.1144C60.3542 14.3893 60.1824 14.6299 59.9623 14.8362C59.7561 15.0287 59.5086 15.1868 59.2199 15.3106C58.9449 15.4206 58.6492 15.4755 58.333 15.4755H58.2917C57.508 15.4755 56.7586 15.6268 56.0437 15.9293C55.3424 16.2318 54.7306 16.6444 54.208 17.1668C53.6855 17.6893 53.2662 18.3012 52.9499 19.0024C52.6337 19.7037 52.4755 20.453 52.4755 21.2506V27.9742Z" fill="#7C7C7C"/>
<path d="M62 20.838C62 19.4768 62.2612 18.205 62.7837 17.0224C63.3062 15.8262 64.0143 14.7812 64.908 13.8875C65.8018 12.9937 66.8399 12.2925 68.0224 11.7838C69.2187 11.2612 70.4905 11 71.838 11C73.1992 11 74.478 11.2612 75.6742 11.7838C76.8705 12.2925 77.9082 12.9937 78.7887 13.8875C79.682 14.7812 80.3832 15.8262 80.8925 17.0224C81.401 18.205 81.6552 19.4768 81.6552 20.838V28.1392C81.6552 28.4554 81.5938 28.7511 81.47 29.026C81.3597 29.3011 81.2015 29.5417 80.9952 29.7479C80.789 29.9542 80.5415 30.1192 80.2527 30.2429C79.9782 30.3667 79.682 30.4285 79.3662 30.4285C78.83 30.4285 78.3762 30.2704 78.005 29.9542C77.6337 29.638 77.3863 29.2392 77.2624 28.758C76.4786 29.3492 75.6261 29.8167 74.7048 30.1604C73.7973 30.5042 72.8418 30.676 71.838 30.676C70.4905 30.676 69.2187 30.4217 68.0224 29.9129C66.8399 29.3905 65.8018 28.6823 64.908 27.7886C64.0143 26.8948 63.3062 25.8499 62.7837 24.6536C62.2612 23.4574 62 22.1855 62 20.838ZM66.4755 20.838C66.4755 21.5667 66.613 22.2611 66.888 22.9211C67.1768 23.5674 67.5618 24.138 68.043 24.633C68.538 25.1143 69.1086 25.4992 69.7549 25.788C70.4011 26.063 71.0955 26.2005 71.838 26.2005C72.5805 26.2005 73.2749 26.063 73.9211 25.788C74.5811 25.4992 75.1517 25.1143 75.633 24.633C76.1142 24.138 76.4923 23.5674 76.7673 22.9211C77.0423 22.2611 77.1798 21.5667 77.1798 20.838C77.1798 20.0955 77.0423 19.4011 76.7673 18.7549C76.4923 18.0949 76.1142 17.5243 75.633 17.0431C75.1517 16.5619 74.5811 16.1837 73.9211 15.9087C73.2749 15.6199 72.5805 15.4756 71.838 15.4756C71.1093 15.4756 70.4149 15.6199 69.7549 15.9087C69.1086 16.1837 68.538 16.5619 68.043 17.0431C67.5618 17.5243 67.1768 18.0949 66.888 18.7549C66.613 19.4011 66.4755 20.0955 66.4755 20.838Z" fill="#7C7C7C"/>
<path d="M103.542 28.263C103.542 28.5792 103.48 28.8748 103.356 29.1498C103.246 29.4111 103.095 29.6448 102.903 29.851C102.71 30.0436 102.477 30.1948 102.201 30.3048C101.94 30.4148 101.658 30.4698 101.356 30.4698C101.053 30.4698 100.758 30.4148 100.469 30.3048C100.194 30.1948 99.9535 30.0436 99.7473 29.851C99.541 29.6448 99.376 29.4111 99.2522 29.1498C99.1285 28.8748 99.0662 28.5792 99.0662 28.263V20.5905C99.0662 20.4805 99.073 20.398 99.0872 20.3431C99.0595 19.6692 98.9223 19.0368 98.6748 18.4456C98.4273 17.8543 98.0898 17.3387 97.6638 16.8987C97.2378 16.4587 96.736 16.1149 96.1585 15.8674C95.5945 15.6062 94.969 15.4755 94.2812 15.4755C93.58 15.4755 92.9335 15.6062 92.3425 15.8674C91.7515 16.1149 91.243 16.4655 90.8163 16.9193C90.4038 17.373 90.0738 17.9093 89.8263 18.528C89.593 19.1331 89.476 19.7862 89.476 20.4874V28.263C89.476 28.5792 89.4205 28.8748 89.311 29.1498C89.2008 29.4111 89.0425 29.6448 88.8363 29.851C88.6443 30.0436 88.417 30.1948 88.156 30.3048C87.8943 30.4148 87.6055 30.4698 87.2898 30.4698C86.9868 30.4698 86.698 30.4148 86.4235 30.3048C86.1483 30.1948 85.9008 30.0436 85.681 29.851C85.4748 29.6448 85.3098 29.4111 85.186 29.1498C85.0623 28.8748 85 28.5792 85 28.263V20.4874C85 19.1674 85.234 17.9368 85.7013 16.7955C86.1828 15.6405 86.836 14.6368 87.661 13.7844C88.4995 12.9181 89.4828 12.2375 90.61 11.7425C91.7515 11.2475 92.9748 11 94.2812 11C95.6012 11 96.8253 11.2475 97.9525 11.7425C99.0798 12.2375 100.056 12.9181 100.881 13.7844C101.706 14.6368 102.353 15.6405 102.82 16.7955C103.302 17.9368 103.542 19.1674 103.542 20.4874V28.263Z" fill="#7C7C7C"/>
<path d="M107 6.3306C107 6.0006 107.055 5.6981 107.165 5.42311C107.289 5.13436 107.447 4.88687 107.639 4.68062C107.845 4.46062 108.086 4.29562 108.361 4.18562C108.636 4.06187 108.932 4 109.248 4C109.578 4 109.873 4.06187 110.135 4.18562C110.41 4.29562 110.644 4.46062 110.836 4.68062C111.043 4.88687 111.201 5.13436 111.31 5.42311C111.421 5.6981 111.475 6.0006 111.475 6.3306V12.7656C112.259 12.2568 113.098 11.8649 113.992 11.5899C114.899 11.3012 115.848 11.1568 116.838 11.1568C118.199 11.1568 119.471 11.418 120.654 11.9406C121.85 12.4493 122.888 13.1505 123.768 14.0443C124.662 14.9243 125.363 15.9623 125.872 17.1586C126.394 18.3548 126.655 19.6336 126.655 20.9949C126.655 22.3423 126.394 23.6141 125.872 24.8104C125.363 26.0067 124.662 27.0516 123.768 27.9454C122.888 28.8391 121.85 29.5473 120.654 30.0697C119.471 30.5785 118.199 30.8328 116.838 30.8328C115.491 30.8328 114.219 30.5785 113.022 30.0697C111.826 29.5473 110.781 28.8391 109.888 27.9454C108.994 27.0516 108.285 26.0067 107.763 24.8104C107.254 23.6141 107 22.3423 107 20.9949V6.3306ZM111.475 20.9949C111.475 21.7235 111.613 22.4179 111.888 23.0779C112.176 23.7242 112.562 24.2948 113.043 24.7898C113.538 25.271 114.108 25.656 114.755 25.9448C115.401 26.2198 116.095 26.3573 116.838 26.3573C117.58 26.3573 118.275 26.2198 118.921 25.9448C119.567 25.656 120.131 25.271 120.613 24.7898C121.108 24.2948 121.492 23.7242 121.768 23.0779C122.042 22.4179 122.18 21.7235 122.18 20.9949C122.18 20.2523 122.042 19.5579 121.768 18.9117C121.492 18.2517 121.108 17.6811 120.613 17.1999C120.131 16.7186 119.567 16.3405 118.921 16.0655C118.275 15.7767 117.58 15.6323 116.838 15.6323C116.095 15.6323 115.401 15.7767 114.755 16.0655C114.108 16.3405 113.538 16.7186 113.043 17.1999C112.562 17.6811 112.176 18.2517 111.888 18.9117C111.613 19.5579 111.475 20.2523 111.475 20.9949Z" fill="#7C7C7C"/>
<path d="M134.991 22.8386C135.17 23.3474 135.418 23.8149 135.734 24.2411C136.064 24.6536 136.442 25.0111 136.869 25.3136C137.295 25.6024 137.762 25.8292 138.271 25.9942C138.78 26.1455 139.316 26.2211 139.88 26.2211C141.296 26.2211 142.41 25.8499 143.221 25.1074C143.496 24.9148 143.764 24.7774 144.025 24.6949C144.287 24.5986 144.534 24.5505 144.768 24.5505C145.153 24.5505 145.497 24.6536 145.799 24.8599C146.102 25.0524 146.349 25.3067 146.541 25.623C146.679 25.843 146.775 26.0836 146.83 26.3449C146.899 26.5924 146.912 26.8467 146.871 27.108C146.843 27.3692 146.761 27.6304 146.624 27.8917C146.5 28.1392 146.308 28.3661 146.046 28.5723C145.744 28.8473 145.401 29.1154 145.015 29.3767C144.63 29.6242 144.183 29.8442 143.675 30.0366C143.18 30.2292 142.616 30.3804 141.983 30.4904C141.365 30.6141 140.664 30.676 139.88 30.676C138.519 30.676 137.24 30.4217 136.043 29.9129C134.847 29.3905 133.803 28.6823 132.909 27.7886C132.015 26.8948 131.306 25.8568 130.784 24.6742C130.262 23.478 130 22.1992 130 20.838C130 19.4768 130.262 18.1981 130.784 17.0018C131.306 15.8056 132.015 14.7675 132.909 13.8875C133.803 12.9937 134.847 12.2925 136.043 11.7838C137.24 11.2612 138.519 11 139.88 11C141.227 11 142.492 11.2544 143.675 11.7631C144.871 12.2719 145.916 12.9662 146.81 13.8463C147.717 14.7124 148.432 15.7368 148.955 16.9193C149.491 18.1018 149.766 19.3668 149.78 20.7143C149.78 21.3468 149.574 21.8624 149.161 22.2611C148.762 22.6462 148.233 22.8386 147.573 22.8386H134.991ZM145.18 19.1262C145.029 18.5624 144.788 18.0537 144.458 17.5999C144.142 17.1462 143.757 16.7612 143.304 16.4449C142.85 16.1287 142.341 15.8881 141.777 15.7231C141.213 15.5581 140.615 15.4756 139.982 15.4756C139.35 15.4756 138.752 15.5649 138.188 15.7437C137.638 15.9087 137.136 16.1562 136.683 16.4862C136.243 16.8025 135.864 17.1874 135.548 17.6412C135.232 18.0812 134.999 18.5762 134.847 19.1262H145.18Z" fill="#7C7C7C"/>
<path d="M307.991 22.8386C308.17 23.3474 308.418 23.8149 308.734 24.2411C309.064 24.6536 309.442 25.0111 309.869 25.3136C310.295 25.6024 310.762 25.8292 311.271 25.9942C311.78 26.1455 312.316 26.2211 312.88 26.2211C314.296 26.2211 315.41 25.8499 316.221 25.1074C316.496 24.9148 316.764 24.7774 317.025 24.6949C317.287 24.5986 317.534 24.5505 317.768 24.5505C318.153 24.5505 318.497 24.6536 318.799 24.8599C319.102 25.0524 319.349 25.3067 319.541 25.623C319.679 25.843 319.775 26.0836 319.83 26.3449C319.899 26.5924 319.912 26.8467 319.871 27.108C319.843 27.3692 319.761 27.6304 319.624 27.8917C319.5 28.1392 319.308 28.3661 319.046 28.5723C318.744 28.8473 318.401 29.1154 318.015 29.3767C317.63 29.6242 317.183 29.8442 316.675 30.0366C316.18 30.2292 315.616 30.3804 314.983 30.4904C314.365 30.6141 313.664 30.676 312.88 30.676C311.519 30.676 310.24 30.4217 309.043 29.9129C307.847 29.3905 306.803 28.6823 305.909 27.7886C305.015 26.8948 304.306 25.8568 303.784 24.6742C303.262 23.478 303 22.1992 303 20.838C303 19.4768 303.262 18.1981 303.784 17.0018C304.306 15.8056 305.015 14.7675 305.909 13.8875C306.803 12.9937 307.847 12.2925 309.043 11.7838C310.24 11.2612 311.519 11 312.88 11C314.227 11 315.492 11.2544 316.675 11.7631C317.871 12.2719 318.916 12.9662 319.81 13.8463C320.717 14.7124 321.432 15.7368 321.955 16.9193C322.491 18.1018 322.766 19.3668 322.78 20.7143C322.78 21.3468 322.574 21.8624 322.161 22.2611C321.762 22.6462 321.233 22.8386 320.573 22.8386H307.991ZM318.18 19.1262C318.029 18.5624 317.788 18.0537 317.458 17.5999C317.142 17.1462 316.757 16.7612 316.304 16.4449C315.85 16.1287 315.341 15.8881 314.777 15.7231C314.213 15.5581 313.615 15.4756 312.982 15.4756C312.35 15.4756 311.752 15.5649 311.188 15.7437C310.638 15.9087 310.136 16.1562 309.683 16.4862C309.243 16.8025 308.864 17.1874 308.548 17.6412C308.232 18.0812 307.999 18.5762 307.847 19.1262H318.18Z" fill="#D06348"/>
<path d="M157.476 27.9742C157.476 28.2767 157.421 28.5654 157.311 28.8404C157.201 29.1154 157.043 29.3492 156.836 29.5417C156.644 29.7342 156.417 29.8923 156.156 30.016C155.894 30.1261 155.613 30.181 155.31 30.181C154.994 30.181 154.691 30.1261 154.403 30.016C154.128 29.8923 153.887 29.7342 153.681 29.5417C153.475 29.3492 153.31 29.1154 153.186 28.8404C153.062 28.5654 153 28.2767 153 27.9742V21.3124C153 19.8961 153.268 18.5624 153.805 17.3112C154.354 16.0599 155.097 14.9668 156.032 14.0319C156.967 13.0968 158.06 12.3613 159.311 11.825C160.562 11.275 161.89 11 163.292 11H163.333C164.076 11 164.646 11.2131 165.045 11.6394C165.457 12.0519 165.664 12.5812 165.664 13.2275C165.664 13.5437 165.602 13.8394 165.479 14.1144C165.355 14.3893 165.182 14.6299 164.962 14.8362C164.756 15.0287 164.509 15.1868 164.22 15.3106C163.945 15.4206 163.649 15.4755 163.333 15.4755H163.292C162.509 15.4755 161.759 15.6268 161.044 15.9293C160.343 16.2318 159.73 16.6444 159.208 17.1668C158.686 17.6893 158.267 18.3012 157.95 19.0024C157.634 19.7037 157.476 20.453 157.476 21.2506V27.9742Z" fill="#7C7C7C"/>
<path d="M173.476 27.9742C173.476 28.2767 173.421 28.5654 173.311 28.8404C173.201 29.1154 173.042 29.3492 172.836 29.5417C172.644 29.7342 172.417 29.8923 172.156 30.016C171.895 30.1261 171.613 30.181 171.31 30.181C170.994 30.181 170.691 30.1261 170.402 30.016C170.128 29.8923 169.887 29.7342 169.681 29.5417C169.475 29.3492 169.31 29.1154 169.186 28.8404C169.062 28.5654 169 28.2767 169 27.9742V21.3124C169 19.8961 169.268 18.5624 169.805 17.3112C170.354 16.0599 171.097 14.9668 172.032 14.0319C172.967 13.0968 174.06 12.3613 175.311 11.825C176.563 11.275 177.89 11 179.292 11H179.333C180.076 11 180.647 11.2131 181.045 11.6394C181.457 12.0519 181.664 12.5812 181.664 13.2275C181.664 13.5437 181.602 13.8394 181.478 14.1144C181.355 14.3893 181.183 14.6299 180.962 14.8362C180.756 15.0287 180.509 15.1868 180.22 15.3106C179.945 15.4206 179.65 15.4755 179.333 15.4755H179.292C178.508 15.4755 177.759 15.6268 177.044 15.9293C176.342 16.2318 175.731 16.6444 175.208 17.1668C174.686 17.6893 174.266 18.3012 173.95 19.0024C173.634 19.7037 173.476 20.453 173.476 21.2506V27.9742Z" fill="#7C7C7C"/>
<path d="M189.475 20.9412C189.475 21.6424 189.606 22.3024 189.867 22.9211C190.128 23.5261 190.486 24.0555 190.94 24.5092C191.394 24.9493 191.93 25.2999 192.549 25.5611C193.168 25.8086 193.828 25.9324 194.529 25.9324C195.23 25.9324 195.883 25.8017 196.488 25.5405C197.107 25.2655 197.636 24.9011 198.076 24.4473C198.53 23.9799 198.887 23.4367 199.149 22.818C199.41 22.1992 199.54 21.5324 199.54 20.8174V13.2275C199.54 12.9249 199.603 12.6431 199.726 12.3819C199.85 12.1068 200.015 11.8662 200.221 11.66C200.427 11.4537 200.667 11.2956 200.943 11.1856C201.231 11.0619 201.527 11 201.83 11C202.146 11 202.434 11.0619 202.695 11.1856C202.957 11.2956 203.184 11.4537 203.376 11.66C203.583 11.8662 203.741 12.1068 203.851 12.3819C203.961 12.6431 204.016 12.9249 204.016 13.2275V20.8999C204.016 22.0274 203.83 23.0999 203.459 24.1174C203.088 25.1211 202.579 26.0286 201.933 26.8398C201.286 27.651 200.517 28.3455 199.623 28.9229C198.729 29.5004 197.76 29.9129 196.715 30.1604V34.9041C196.715 35.2203 196.653 35.516 196.529 35.791C196.419 36.066 196.261 36.2998 196.055 36.4922C195.849 36.6985 195.608 36.8566 195.333 36.9666C195.072 37.0903 194.79 37.1522 194.487 37.1522C193.841 37.1522 193.305 36.9391 192.879 36.5128C192.452 36.0866 192.239 35.5503 192.239 34.9041V30.1398C191.194 29.8786 190.231 29.4592 189.352 28.8816C188.472 28.3042 187.708 27.6098 187.062 26.7986C186.416 25.9873 185.907 25.0798 185.536 24.0761C185.178 23.0724 185 22.0136 185 20.8999V13.2275C185 12.9249 185.055 12.6431 185.165 12.3819C185.289 12.1068 185.447 11.8662 185.639 11.66C185.845 11.4537 186.086 11.2956 186.361 11.1856C186.636 11.0619 186.925 11 187.228 11C187.53 11 187.819 11.0619 188.094 11.1856C188.368 11.2956 188.609 11.4537 188.815 11.66C189.021 11.8662 189.18 12.1068 189.29 12.3819C189.414 12.6431 189.475 12.9249 189.475 13.2275V20.9412Z" fill="#7C7C7C"/>
<path d="M211.546 20.0064C211.54 20.0131 211.536 20.0222 211.536 20.0318C211.538 20.6847 211.671 21.3307 211.935 21.9699C212.215 22.6139 212.586 23.1949 213.048 23.7129C213.524 24.2169 214.077 24.6298 214.707 24.9518C215.337 25.2738 216.016 25.4418 216.744 25.4558C217.5 25.4558 218.165 25.3648 218.739 25.1828C219.327 24.9868 219.915 24.6438 220.503 24.1539C220.783 23.9159 221.091 23.6989 221.427 23.5029C221.777 23.2929 222.155 23.1879 222.561 23.1879C222.799 23.1879 223.051 23.2439 223.317 23.3559C223.583 23.4539 223.856 23.6219 224.136 23.8599C224.374 24.0699 224.549 24.3219 224.661 24.6158C224.787 24.8958 224.843 25.1968 224.829 25.5188C224.829 25.8268 224.759 26.1348 224.619 26.4428C224.493 26.7508 224.297 27.0448 224.031 27.3248C223.163 28.2068 222.127 28.8788 220.923 29.3408C219.733 29.8028 218.48 30.0338 217.164 30.0338C215.764 30.0338 214.448 29.7818 213.216 29.2778C211.984 28.7598 210.906 28.0528 209.982 27.1568C209.058 26.2608 208.33 25.2108 207.798 24.0069C207.268 22.793 207.002 21.4887 207 20.094C207 20.085 207.004 20.0765 207.009 20.0693C207.015 20.0623 207.018 20.0553 207.02 20.0483C207.021 20.0427 207.016 20.0379 207.01 20.0379C207.005 20.0379 207 20.0332 207 20.0274C207.001 18.6314 207.267 17.3259 207.798 16.1109C208.33 14.8789 209.058 13.815 209.982 12.919C210.906 12.009 211.984 11.295 213.216 10.777C214.448 10.259 215.764 10 217.164 10C218.48 10 219.733 10.224 220.923 10.672C222.127 11.106 223.163 11.764 224.031 12.646C224.297 12.912 224.5 13.206 224.64 13.528C224.78 13.836 224.85 14.151 224.85 14.473C224.864 14.781 224.808 15.0819 224.682 15.3759C224.556 15.6559 224.367 15.9079 224.115 16.1319C223.835 16.3699 223.569 16.5379 223.317 16.6359C223.065 16.7339 222.82 16.7829 222.582 16.7829C222.176 16.7829 221.798 16.6849 221.448 16.4889C221.112 16.2789 220.797 16.0549 220.503 15.8169C219.915 15.3689 219.334 15.0469 218.76 14.851C218.186 14.655 217.584 14.557 216.954 14.557C216.24 14.557 215.554 14.704 214.896 14.9979C214.238 15.2919 213.664 15.6909 213.174 16.1949C212.684 16.6989 212.292 17.2799 211.998 17.9379C211.706 18.5913 211.559 19.2724 211.557 19.981C211.557 19.9905 211.553 19.9997 211.546 20.0064Z" fill="#D06348"/>
<path d="M247.722 20.8608C247.722 19.4964 247.459 18.2147 246.935 17.0157L242.816 18.7728C243.092 19.4206 243.23 20.1166 243.23 20.8608C243.23 21.5912 243.092 22.2872 242.816 22.9487L247.722 20.8608Z" fill="#D06348"/>
<path d="M246.935 24.6852C247.459 23.4862 247.722 22.2114 247.722 20.8608L242.816 22.9487C242.541 23.5964 242.154 24.1684 241.657 24.6645C241.175 25.1469 240.609 25.5327 239.96 25.8222C239.312 26.0978 238.615 26.2356 237.87 26.2356C237.125 26.2356 236.428 26.0978 235.78 25.8222C235.131 25.5327 234.559 25.1469 234.062 24.6645C233.579 24.1684 233.193 23.5964 232.903 22.9487L228.764 24.6852C229.288 25.8842 229.998 26.9316 230.895 27.8274C231.792 28.7232 232.841 29.4329 234.041 29.9566C235.242 30.4666 236.518 30.7215 237.87 30.7215C239.236 30.7215 240.512 30.4666 241.699 29.9566C242.899 29.4329 243.941 28.7232 244.824 27.8274C245.721 26.9316 246.425 25.8842 246.935 24.6852Z" fill="#D06348"/>
<path d="M237.87 11C236.877 11 236.093 11.1047 235.014 11.4341L235.78 15.92C236.428 15.6306 237.125 15.4859 237.87 15.4859C238.615 15.4859 239.312 15.6306 239.96 15.92C240.609 16.1957 241.175 16.5747 241.657 17.057C242.154 17.5394 242.541 18.1113 242.816 18.7728L246.935 17.0157C246.425 15.8167 245.721 14.7762 244.824 13.8941C243.941 12.9983 242.899 12.2955 241.699 11.7856C240.512 11.2619 239.236 11 237.87 11Z" fill="#D06348"/>
<path d="M235.014 11.4341C233.975 11.7512 233.279 12.1009 232.494 12.609C232.491 12.611 232.49 12.6149 232.491 12.6185L234.062 17.057C234.559 16.5747 235.131 16.1957 235.78 15.92L235.014 11.4341Z" fill="#D06348"/>
<path d="M232.903 18.7728C233.193 18.1113 233.579 17.5394 234.062 17.057L232.491 12.6185C231.146 13.4717 230.457 14.1516 229.584 15.4859L232.903 18.7728Z" fill="#D06348"/>
<path d="M228.009 20.4749C227.943 22.144 228.253 23.4862 228.764 24.6852L232.903 22.9487C232.627 22.2872 232.489 21.5912 232.489 20.8608C232.489 20.1166 232.627 19.4206 232.903 18.7728L229.584 15.4859C228.464 17.1956 228.089 18.4336 228.009 20.4749Z" fill="#D06348"/>
<path d="M270.722 20.8608C270.722 19.4964 270.459 18.2147 269.935 17.0157L265.816 18.7728C266.092 19.4206 266.23 20.1166 266.23 20.8608C266.23 21.5912 266.092 22.2872 265.816 22.9487L270.722 20.8608Z" fill="#D06348"/>
<path d="M269.935 24.6852C270.459 23.4862 270.722 22.2114 270.722 20.8608L265.816 22.9487C265.541 23.5964 265.154 24.1684 264.657 24.6645C264.175 25.1469 263.609 25.5327 262.96 25.8222C262.312 26.0978 261.615 26.2356 260.87 26.2356C260.125 26.2356 259.428 26.0978 258.78 25.8222C258.131 25.5327 257.559 25.1469 257.062 24.6645C256.579 24.1684 256.193 23.5964 255.903 22.9487L251.764 24.6852C252.288 25.8842 252.998 26.9316 253.895 27.8274C254.792 28.7232 255.841 29.4329 257.041 29.9566C258.242 30.4666 259.518 30.7215 260.87 30.7215C262.236 30.7215 263.512 30.4666 264.699 29.9566C265.899 29.4329 266.941 28.7232 267.824 27.8274C268.721 26.9316 269.425 25.8842 269.935 24.6852Z" fill="#D06348"/>
<path d="M260.87 11C259.877 11 259.093 11.1047 258.014 11.4341L258.78 15.92C259.428 15.6306 260.125 15.4859 260.87 15.4859C261.615 15.4859 262.312 15.6306 262.96 15.92C263.609 16.1957 264.175 16.5747 264.657 17.057C265.154 17.5394 265.541 18.1113 265.816 18.7728L269.935 17.0157C269.425 15.8167 268.721 14.7762 267.824 13.8941C266.941 12.9983 265.899 12.2955 264.699 11.7856C263.512 11.2619 262.236 11 260.87 11Z" fill="#D06348"/>
<path d="M258.014 11.4341C256.975 11.7512 256.279 12.1009 255.494 12.609C255.491 12.611 255.49 12.6149 255.491 12.6185L257.062 17.057C257.559 16.5747 258.131 16.1957 258.78 15.92L258.014 11.4341Z" fill="#D06348"/>
<path d="M255.903 18.7728C256.193 18.1113 256.579 17.5394 257.062 17.057L255.491 12.6185C254.146 13.4717 253.457 14.1516 252.584 15.4859L255.903 18.7728Z" fill="#D06348"/>
<path d="M251.009 20.4749C250.943 22.144 251.253 23.4862 251.764 24.6852L255.903 22.9487C255.627 22.2872 255.489 21.5912 255.489 20.8608C255.489 20.1166 255.627 19.4206 255.903 18.7728L252.584 15.4859C251.464 17.1956 251.089 18.4336 251.009 20.4749Z" fill="#D06348"/>
<path d="M275 9V23.9856M275 30.1657V23.9856M275 23.9856L278.642 20.7483M285.595 14.5682L278.642 20.7483M278.642 20.7483L287.176 29.2828" stroke="#D06348" stroke-width="4.05879" stroke-linecap="round" stroke-linejoin="round"/>
<path d="M294.176 10.2608C294.176 9.94419 294.233 9.65287 294.347 9.38689C294.474 9.10825 294.639 8.8676 294.841 8.66495C295.044 8.4623 295.285 8.30398 295.563 8.18999C295.842 8.06333 296.133 8 296.437 8C296.754 8 297.045 8.06333 297.311 8.18999C297.577 8.30398 297.805 8.4623 297.995 8.66495C298.198 8.8676 298.356 9.10825 298.47 9.38689C298.584 9.65287 298.641 9.94419 298.641 10.2608C298.641 10.5648 298.578 10.8561 298.451 11.1348C298.337 11.4134 298.172 11.6541 297.957 11.8567C297.754 12.0594 297.514 12.224 297.235 12.3507C296.969 12.4647 296.678 12.5217 296.361 12.5217C296.057 12.5217 295.772 12.4647 295.506 12.3507C295.24 12.224 295.006 12.0594 294.803 11.8567C294.613 11.6541 294.461 11.4134 294.347 11.1348C294.233 10.8561 294.176 10.5648 294.176 10.2608Z" fill="#D06348"/>
<path d="M296.409 15.6006L296.409 29.6006" stroke="#D06348" stroke-width="4.46467" stroke-linecap="round"/>
</svg>
