<svg width="385" height="55" viewBox="0 0 385 55" fill="none" xmlns="http://www.w3.org/2000/svg">
<g clip-path="url(#clip0_2419_26433)">
<path fill-rule="evenodd" clip-rule="evenodd" d="M43.2733 1.20995C41.6601 -0.403316 39.0444 -0.403316 37.4309 1.20995L32.7572 5.88372C29.8534 8.78766 25.1452 8.78766 22.2413 5.88372L18.1518 1.79418C16.5385 0.180919 13.9229 0.180919 12.3096 1.79418C10.6963 3.40748 10.6963 6.02313 12.3096 7.63639L16.3991 11.7259C22.5296 17.8564 32.4691 17.8564 38.5996 11.7259L43.2733 7.05215C44.8864 5.43889 44.8864 2.82325 43.2733 1.20995Z" fill="#AE4D35"/>
<path fill-rule="evenodd" clip-rule="evenodd" d="M11.7266 53.7897C13.3398 55.4028 15.9555 55.4028 17.5688 53.7897L22.2426 49.116C25.1465 46.2122 29.8546 46.2122 32.7585 49.116L36.848 53.2055C38.4615 54.8187 41.0768 54.8187 42.6904 53.2055C44.3035 51.5924 44.3035 48.9767 42.6904 47.3632L38.6009 43.2737C32.4704 37.1432 22.5308 37.1432 16.4004 43.2737L11.7266 47.9473C10.1133 49.5608 10.1133 52.1765 11.7266 53.7897Z" fill="#AE4D35"/>
<path fill-rule="evenodd" clip-rule="evenodd" d="M1.20995 43.2753C-0.403316 41.6621 -0.403316 39.0464 1.20995 37.4329L5.88372 32.7592C8.78766 29.8554 8.78766 25.147 5.88372 22.2433L1.79418 18.1537C0.180921 16.5405 0.180921 13.9248 1.79418 12.3115C3.40749 10.6982 6.02313 10.6982 7.63639 12.3115L11.7259 16.4011C17.8564 22.5315 17.8564 32.4711 11.7259 38.6016L7.0522 43.2753C5.43889 44.8884 2.82325 44.8884 1.20995 43.2753Z" fill="#AE4D35"/>
<path d="M40.3989 28.6594C40.3989 29.521 40.5731 30.3735 40.9214 31.2168C41.2881 32.0602 41.7739 32.821 42.3789 33.4993C43.0022 34.1593 43.7264 34.7001 44.5514 35.1218C45.3764 35.5435 46.2655 35.7635 47.2188 35.7818C48.2088 35.7818 49.0797 35.6626 49.8313 35.4243C50.6013 35.1676 51.3713 34.7185 52.1413 34.0768C52.508 33.7651 52.9113 33.481 53.3513 33.2243C53.8096 32.9493 54.3046 32.8118 54.8363 32.8118C55.1479 32.8118 55.4779 32.8852 55.8263 33.0318C56.1746 33.1601 56.5321 33.3801 56.8987 33.6918C57.2104 33.9668 57.4396 34.2968 57.5862 34.6818C57.7512 35.0485 57.8246 35.4426 57.8062 35.8643C57.8062 36.2676 57.7146 36.6709 57.5312 37.0743C57.3662 37.4776 57.1096 37.8626 56.7612 38.2293C55.6246 39.3843 54.2679 40.2642 52.6913 40.8692C51.133 41.4742 49.4922 41.7767 47.7688 41.7767C45.9355 41.7767 44.2122 41.4467 42.5989 40.7867C40.9856 40.1084 39.5739 39.1826 38.3639 38.0093C37.154 36.8359 36.2006 35.461 35.504 33.8843C34.8073 32.2893 34.459 30.5752 34.459 28.7419C34.4773 28.7235 34.4865 28.7052 34.4865 28.6869H34.459C34.459 26.8535 34.8073 25.1394 35.504 23.5444C36.2006 21.9311 37.154 20.5378 38.3639 19.3645C39.5739 18.1728 40.9856 17.2378 42.5989 16.5595C44.2122 15.8812 45.9355 15.542 47.7688 15.542C49.4922 15.542 51.133 15.8353 52.6913 16.422C54.2679 16.9903 55.6246 17.852 56.7612 19.007C57.1096 19.3553 57.3754 19.7403 57.5587 20.1619C57.7421 20.5653 57.8337 20.9778 57.8337 21.3994C57.8521 21.8028 57.7787 22.1969 57.6137 22.5819C57.4487 22.9486 57.2012 23.2786 56.8712 23.5719C56.5046 23.8836 56.1563 24.1036 55.8263 24.2319C55.4963 24.3602 55.1754 24.4244 54.8638 24.4244C54.3321 24.4244 53.8371 24.2961 53.3788 24.0394C52.9388 23.7644 52.5263 23.4711 52.1413 23.1594C51.3713 22.5728 50.6105 22.1511 49.8588 21.8944C49.1072 21.6378 48.3188 21.5094 47.4938 21.5094C46.5589 21.5094 45.6605 21.7019 44.7989 22.0869C43.9372 22.4719 43.1856 22.9944 42.5439 23.6544C41.9022 24.3144 41.3889 25.0752 41.0039 25.9369C40.6189 26.7985 40.4264 27.6969 40.4264 28.6319L40.3989 28.6594Z" fill="#7C7C7C"/>
<path d="M67.6583 38.5044C67.6583 38.9077 67.585 39.2927 67.4383 39.6593C67.2917 40.026 67.0808 40.3377 66.8058 40.5943C66.5492 40.851 66.2467 41.0618 65.8984 41.2268C65.55 41.3735 65.1742 41.4468 64.7709 41.4468C64.3492 41.4468 63.9459 41.3735 63.5609 41.2268C63.1942 41.0618 62.8734 40.851 62.5984 40.5943C62.3234 40.3377 62.1034 40.026 61.9384 39.6593C61.7734 39.2927 61.6909 38.9077 61.6909 38.5044V29.622C61.6909 27.7336 62.0484 25.9553 62.7634 24.287C63.4967 22.6187 64.4867 21.1612 65.7334 19.9146C66.98 18.6679 68.4375 17.6871 70.1058 16.9721C71.7741 16.2388 73.5433 15.8721 75.4132 15.8721H75.4682C76.4582 15.8721 77.2191 16.1563 77.7507 16.7246C78.3007 17.2746 78.5757 17.9804 78.5757 18.8421C78.5757 19.2637 78.4932 19.6579 78.3282 20.0246C78.1632 20.3912 77.9341 20.712 77.6407 20.987C77.3657 21.2437 77.0357 21.4545 76.6507 21.6195C76.2841 21.7662 75.8899 21.8395 75.4682 21.8395H75.4132C74.3683 21.8395 73.3691 22.0412 72.4158 22.4445C71.4808 22.8479 70.665 23.3979 69.9683 24.0945C69.2716 24.7912 68.7125 25.607 68.2908 26.542C67.8692 27.477 67.6583 28.4761 67.6583 29.5395V38.5044Z" fill="#7C7C7C"/>
<path d="M79.522 28.6594C79.522 26.8444 79.8703 25.1486 80.567 23.5719C81.2636 21.9769 82.2078 20.5836 83.3994 19.392C84.5911 18.2003 85.9752 17.2653 87.5519 16.587C89.1469 15.8903 90.8427 15.542 92.6393 15.542C94.4543 15.542 96.1593 15.8903 97.7543 16.587C99.3493 17.2653 100.733 18.2003 101.907 19.392C103.098 20.5836 104.033 21.9769 104.712 23.5719C105.39 25.1486 105.729 26.8444 105.729 28.6594V38.3943C105.729 38.8159 105.647 39.2101 105.482 39.5767C105.335 39.9434 105.124 40.2642 104.849 40.5392C104.574 40.8142 104.244 41.0342 103.859 41.1992C103.493 41.3642 103.098 41.4467 102.677 41.4467C101.962 41.4467 101.357 41.2359 100.862 40.8142C100.367 40.3926 100.037 39.8609 99.8718 39.2193C98.8268 40.0076 97.6901 40.6309 96.4618 41.0892C95.2518 41.5476 93.9777 41.7767 92.6393 41.7767C90.8427 41.7767 89.1469 41.4376 87.5519 40.7592C85.9752 40.0626 84.5911 39.1184 83.3994 37.9268C82.2078 36.7351 81.2636 35.3418 80.567 33.7468C79.8703 32.1518 79.522 30.456 79.522 28.6594ZM85.4894 28.6594C85.4894 29.631 85.6727 30.5568 86.0394 31.4368C86.4244 32.2985 86.9377 33.0593 87.5794 33.7193C88.2394 34.361 89.0002 34.8743 89.8619 35.2593C90.7235 35.626 91.6494 35.8093 92.6393 35.8093C93.6293 35.8093 94.5552 35.626 95.4168 35.2593C96.2968 34.8743 97.0576 34.361 97.6993 33.7193C98.3409 33.0593 98.8451 32.2985 99.2118 31.4368C99.5784 30.5568 99.7618 29.631 99.7618 28.6594C99.7618 27.6694 99.5784 26.7435 99.2118 25.8819C98.8451 25.0019 98.3409 24.2411 97.6993 23.5994C97.0576 22.9578 96.2968 22.4536 95.4168 22.0869C94.5552 21.7019 93.6293 21.5094 92.6393 21.5094C91.6677 21.5094 90.7419 21.7019 89.8619 22.0869C89.0002 22.4536 88.2394 22.9578 87.5794 23.5994C86.9377 24.2411 86.4244 25.0019 86.0394 25.8819C85.6727 26.7435 85.4894 27.6694 85.4894 28.6594Z" fill="#7C7C7C"/>
<path d="M135.449 38.5593C135.449 38.9809 135.367 39.3751 135.202 39.7417C135.055 40.0901 134.854 40.4017 134.597 40.6767C134.34 40.9334 134.029 41.1351 133.662 41.2817C133.314 41.4284 132.938 41.5017 132.535 41.5017C132.131 41.5017 131.737 41.4284 131.352 41.2817C130.985 41.1351 130.665 40.9334 130.39 40.6767C130.115 40.4017 129.895 40.0901 129.73 39.7417C129.565 39.3751 129.482 38.9809 129.482 38.5593V28.3294C129.482 28.1827 129.491 28.0727 129.51 27.9994C129.473 27.101 129.29 26.2577 128.96 25.4694C128.63 24.6811 128.18 23.9936 127.612 23.4069C127.044 22.8203 126.375 22.3619 125.605 22.0319C124.853 21.6836 124.019 21.5094 123.102 21.5094C122.167 21.5094 121.305 21.6836 120.517 22.0319C119.729 22.3619 119.051 22.8294 118.482 23.4344C117.932 24.0394 117.492 24.7544 117.162 25.5794C116.851 26.3861 116.695 27.2569 116.695 28.1919V38.5593C116.695 38.9809 116.621 39.3751 116.475 39.7417C116.328 40.0901 116.117 40.4017 115.842 40.6767C115.586 40.9334 115.283 41.1351 114.935 41.2817C114.586 41.4284 114.201 41.5017 113.78 41.5017C113.376 41.5017 112.991 41.4284 112.625 41.2817C112.258 41.1351 111.928 40.9334 111.635 40.6767C111.36 40.4017 111.14 40.0901 110.975 39.7417C110.81 39.3751 110.727 38.9809 110.727 38.5593V28.1919C110.727 26.4319 111.039 24.7911 111.662 23.2694C112.304 21.7294 113.175 20.3911 114.275 19.2545C115.393 18.0995 116.704 17.192 118.207 16.532C119.729 15.872 121.36 15.542 123.102 15.542C124.862 15.542 126.494 15.872 127.997 16.532C129.5 17.192 130.802 18.0995 131.902 19.2545C133.002 20.3911 133.864 21.7294 134.487 23.2694C135.129 24.7911 135.449 26.4319 135.449 28.1919V38.5593Z" fill="#7C7C7C"/>
<path d="M140.767 9.10747C140.767 8.66747 140.84 8.26414 140.987 7.89748C141.152 7.51248 141.363 7.18249 141.619 6.90749C141.894 6.61416 142.215 6.39416 142.582 6.2475C142.948 6.0825 143.343 6 143.764 6C144.204 6 144.598 6.0825 144.947 6.2475C145.313 6.39416 145.625 6.61416 145.882 6.90749C146.157 7.18249 146.368 7.51248 146.514 7.89748C146.661 8.26414 146.734 8.66747 146.734 9.10747V17.6874C147.779 17.0091 148.898 16.4866 150.089 16.1199C151.299 15.7349 152.564 15.5424 153.884 15.5424C155.699 15.5424 157.395 15.8907 158.972 16.5874C160.567 17.2657 161.951 18.2007 163.124 19.3924C164.316 20.5657 165.251 21.9498 165.929 23.5448C166.626 25.1398 166.974 26.8448 166.974 28.6598C166.974 30.4564 166.626 32.1522 165.929 33.7472C165.251 35.3422 164.316 36.7355 163.124 37.9272C161.951 39.1188 160.567 40.063 158.972 40.7596C157.395 41.438 155.699 41.7771 153.884 41.7771C152.088 41.7771 150.392 41.438 148.797 40.7596C147.202 40.063 145.808 39.1188 144.617 37.9272C143.425 36.7355 142.481 35.3422 141.784 33.7472C141.106 32.1522 140.767 30.4564 140.767 28.6598V9.10747ZM146.734 28.6598C146.734 29.6314 146.918 30.5572 147.284 31.4372C147.669 32.2989 148.183 33.0597 148.824 33.7197C149.484 34.3614 150.245 34.8747 151.107 35.2597C151.968 35.6264 152.894 35.8097 153.884 35.8097C154.874 35.8097 155.8 35.6264 156.662 35.2597C157.523 34.8747 158.275 34.3614 158.917 33.7197C159.577 33.0597 160.09 32.2989 160.457 31.4372C160.823 30.5572 161.007 29.6314 161.007 28.6598C161.007 27.6698 160.823 26.7439 160.457 25.8823C160.09 25.0023 159.577 24.2415 158.917 23.5998C158.275 22.9582 157.523 22.454 156.662 22.0873C155.8 21.7023 154.874 21.5098 153.884 21.5098C152.894 21.5098 151.968 21.7023 151.107 22.0873C150.245 22.454 149.484 22.9582 148.824 23.5998C148.183 24.2415 147.669 25.0023 147.284 25.8823C146.918 26.7439 146.734 27.6698 146.734 28.6598Z" fill="#7C7C7C"/>
<path d="M176.034 31.3268C176.273 32.0052 176.603 32.6285 177.024 33.1968C177.464 33.7468 177.968 34.2235 178.537 34.6268C179.105 35.0118 179.728 35.3143 180.407 35.5343C181.085 35.736 181.8 35.8368 182.552 35.8368C184.44 35.8368 185.925 35.3418 187.007 34.3518C187.373 34.0951 187.731 33.9118 188.079 33.8018C188.428 33.6735 188.758 33.6093 189.069 33.6093C189.583 33.6093 190.041 33.7468 190.444 34.0218C190.848 34.2785 191.178 34.6176 191.434 35.0393C191.618 35.3326 191.746 35.6535 191.819 36.0018C191.911 36.3318 191.929 36.6709 191.874 37.0193C191.837 37.3676 191.727 37.7159 191.544 38.0643C191.379 38.3943 191.123 38.6968 190.774 38.9718C190.371 39.3384 189.913 39.6959 189.399 40.0442C188.886 40.3742 188.29 40.6676 187.612 40.9242C186.952 41.1809 186.2 41.3826 185.357 41.5292C184.532 41.6942 183.597 41.7767 182.552 41.7767C180.737 41.7767 179.032 41.4376 177.437 40.7592C175.842 40.0626 174.449 39.1184 173.257 37.9268C172.065 36.7351 171.121 35.351 170.424 33.7743C169.728 32.1793 169.379 30.4743 169.379 28.6594C169.379 26.8444 169.728 25.1394 170.424 23.5444C171.121 21.9494 172.065 20.5653 173.257 19.392C174.449 18.2003 175.842 17.2653 177.437 16.587C179.032 15.8903 180.737 15.542 182.552 15.542C184.348 15.542 186.035 15.8812 187.612 16.5595C189.207 17.2378 190.6 18.1636 191.792 19.337C193.002 20.4919 193.955 21.8578 194.652 23.4344C195.367 25.0111 195.733 26.6977 195.752 28.4944C195.752 29.3377 195.477 30.0252 194.927 30.5568C194.395 31.0702 193.689 31.3268 192.809 31.3268H176.034ZM189.619 26.3769C189.418 25.6252 189.097 24.9469 188.657 24.3419C188.235 23.7369 187.722 23.2236 187.117 22.8019C186.512 22.3803 185.833 22.0594 185.082 21.8394C184.33 21.6194 183.533 21.5094 182.689 21.5094C181.846 21.5094 181.048 21.6286 180.297 21.8669C179.563 22.0869 178.894 22.4169 178.289 22.8569C177.703 23.2786 177.198 23.7919 176.777 24.3969C176.355 24.9836 176.044 25.6436 175.842 26.3769H189.619Z" fill="#7C7C7C"/>
<path d="M205.211 38.5044C205.211 38.9077 205.137 39.2927 204.991 39.6593C204.844 40.026 204.633 40.3377 204.358 40.5943C204.102 40.851 203.799 41.0618 203.451 41.2268C203.102 41.3735 202.727 41.4468 202.323 41.4468C201.902 41.4468 201.498 41.3735 201.113 41.2268C200.747 41.0618 200.426 40.851 200.151 40.5943C199.876 40.3377 199.656 40.026 199.491 39.6593C199.326 39.2927 199.243 38.9077 199.243 38.5044V29.622C199.243 27.7336 199.601 25.9553 200.316 24.287C201.049 22.6187 202.039 21.1612 203.286 19.9146C204.532 18.6679 205.99 17.6871 207.658 16.9721C209.326 16.2388 211.096 15.8721 212.966 15.8721H213.021C214.011 15.8721 214.771 16.1563 215.303 16.7246C215.853 17.2746 216.128 17.9804 216.128 18.8421C216.128 19.2637 216.046 19.6579 215.881 20.0246C215.716 20.3912 215.486 20.712 215.193 20.987C214.918 21.2437 214.588 21.4545 214.203 21.6195C213.836 21.7662 213.442 21.8395 213.021 21.8395H212.966C211.921 21.8395 210.921 22.0412 209.968 22.4445C209.033 22.8479 208.217 23.3979 207.521 24.0945C206.824 24.7912 206.265 25.607 205.843 26.542C205.421 27.477 205.211 28.4761 205.211 29.5395V38.5044Z" fill="#7C7C7C"/>
<path d="M225.191 38.5044C225.191 38.9077 225.118 39.2927 224.971 39.6593C224.824 40.026 224.613 40.3377 224.338 40.5943C224.082 40.851 223.779 41.0618 223.431 41.2268C223.083 41.3735 222.707 41.4468 222.303 41.4468C221.882 41.4468 221.478 41.3735 221.093 41.2268C220.727 41.0618 220.406 40.851 220.131 40.5943C219.856 40.3377 219.636 40.026 219.471 39.6593C219.306 39.2927 219.223 38.9077 219.223 38.5044V29.622C219.223 27.7336 219.581 25.9553 220.296 24.287C221.029 22.6187 222.019 21.1612 223.266 19.9146C224.513 18.6679 225.97 17.6871 227.638 16.9721C229.307 16.2388 231.076 15.8721 232.946 15.8721H233.001C233.991 15.8721 234.752 16.1563 235.283 16.7246C235.833 17.2746 236.108 17.9804 236.108 18.8421C236.108 19.2637 236.026 19.6579 235.861 20.0246C235.696 20.3912 235.467 20.712 235.173 20.987C234.898 21.2437 234.568 21.4545 234.183 21.6195C233.817 21.7662 233.423 21.8395 233.001 21.8395H232.946C231.901 21.8395 230.902 22.0412 229.948 22.4445C229.013 22.8479 228.198 23.3979 227.501 24.0945C226.804 24.7912 226.245 25.607 225.823 26.542C225.402 27.477 225.191 28.4761 225.191 29.5395V38.5044Z" fill="#7C7C7C"/>
<path d="M245.226 29.127C245.226 30.0619 245.4 30.9419 245.749 31.7669C246.097 32.5736 246.574 33.2794 247.179 33.8844C247.784 34.4711 248.499 34.9386 249.324 35.2869C250.149 35.6169 251.029 35.7819 251.964 35.7819C252.899 35.7819 253.769 35.6077 254.576 35.2594C255.401 34.8927 256.107 34.4069 256.694 33.8019C257.299 33.1786 257.775 32.4544 258.124 31.6294C258.472 30.8044 258.646 29.9153 258.646 28.962V18.8421C258.646 18.4387 258.729 18.0629 258.894 17.7146C259.059 17.3479 259.279 17.0271 259.554 16.7521C259.829 16.4771 260.149 16.2663 260.516 16.1196C260.901 15.9546 261.295 15.8721 261.699 15.8721C262.12 15.8721 262.505 15.9546 262.853 16.1196C263.202 16.2663 263.504 16.4771 263.761 16.7521C264.036 17.0271 264.247 17.3479 264.393 17.7146C264.54 18.0629 264.613 18.4387 264.613 18.8421V29.072C264.613 30.5753 264.366 32.0053 263.871 33.3619C263.376 34.7002 262.698 35.9102 261.836 36.9919C260.974 38.0735 259.948 38.9994 258.756 39.7693C257.564 40.5393 256.272 41.0893 254.879 41.4193V47.7443C254.879 48.1659 254.796 48.5601 254.631 48.9268C254.484 49.2934 254.274 49.6051 253.999 49.8617C253.724 50.1367 253.403 50.3476 253.036 50.4942C252.688 50.6592 252.312 50.7417 251.909 50.7417C251.047 50.7417 250.332 50.4576 249.764 49.8892C249.195 49.3209 248.911 48.6059 248.911 47.7443V41.3918C247.518 41.0435 246.234 40.4843 245.061 39.7143C243.888 38.9444 242.87 38.0185 242.009 36.9369C241.147 35.8552 240.469 34.6452 239.974 33.3069C239.497 31.9686 239.259 30.5569 239.259 29.072V18.8421C239.259 18.4387 239.332 18.0629 239.479 17.7146C239.644 17.3479 239.855 17.0271 240.111 16.7521C240.386 16.4771 240.707 16.2663 241.074 16.1196C241.44 15.9546 241.825 15.8721 242.229 15.8721C242.632 15.8721 243.017 15.9546 243.384 16.1196C243.75 16.2663 244.071 16.4771 244.346 16.7521C244.621 17.0271 244.832 17.3479 244.979 17.7146C245.144 18.0629 245.226 18.4387 245.226 18.8421V29.127Z" fill="#7C7C7C"/>
<path d="M345.775 38.5658C345.775 38.9692 345.702 39.3542 345.555 39.7208C345.408 40.0875 345.198 40.3991 344.923 40.6558C344.666 40.9125 344.363 41.1233 344.015 41.2883C343.667 41.435 343.291 41.5083 342.887 41.5083C342.466 41.5083 342.063 41.435 341.678 41.2883C341.311 41.1233 340.99 40.9125 340.715 40.6558C340.44 40.3991 340.22 40.0875 340.055 39.7208C339.89 39.3542 339.808 38.9692 339.808 38.5658V29.6834C339.808 27.7951 340.165 26.0168 340.88 24.3485C341.613 22.6802 342.603 21.2227 343.85 19.976C345.097 18.7294 346.554 17.7485 348.222 17.0336C349.891 16.3002 351.66 15.9336 353.53 15.9336H353.585C354.575 15.9336 355.336 16.2177 355.867 16.7861C356.417 17.3361 356.692 18.0419 356.692 18.9035C356.692 19.3252 356.61 19.7194 356.445 20.086C356.28 20.4527 356.051 20.7735 355.757 21.0485C355.482 21.3052 355.152 21.516 354.767 21.681C354.401 21.8277 354.007 21.901 353.585 21.901H353.53C352.485 21.901 351.486 22.1027 350.532 22.506C349.597 22.9093 348.782 23.4593 348.085 24.156C347.388 24.8526 346.829 25.6685 346.407 26.6035C345.986 27.5384 345.775 28.5376 345.775 29.6009V38.5658Z" fill="#AE4D35"/>
<path d="M310.715 28.3907C310.715 26.5758 311.063 24.8799 311.76 23.3033C312.457 21.7083 313.401 20.315 314.593 19.1233C315.784 17.9317 317.168 16.9967 318.745 16.3184C320.34 15.6217 322.036 15.2734 323.833 15.2734C325.647 15.2734 327.352 15.6217 328.947 16.3184C330.542 16.9967 331.927 17.9317 333.1 19.1233C334.292 20.315 335.227 21.7083 335.905 23.3033C336.583 24.8799 336.922 26.5758 336.922 28.3907V38.1256C336.922 38.5473 336.84 38.9415 336.675 39.3081C336.528 39.6748 336.317 39.9956 336.042 40.2706C335.767 40.5456 335.437 40.7656 335.052 40.9306C334.686 41.0956 334.292 41.1781 333.87 41.1781C333.155 41.1781 332.55 40.9673 332.055 40.5456C331.56 40.1239 331.23 39.5923 331.065 38.9506C330.02 39.7389 328.883 40.3623 327.655 40.8206C326.445 41.2789 325.171 41.5081 323.833 41.5081C322.036 41.5081 320.34 41.1689 318.745 40.4906C317.168 39.7939 315.784 38.8498 314.593 37.6581C313.401 36.4665 312.457 35.0732 311.76 33.4782C311.063 31.8832 310.715 30.1874 310.715 28.3907ZM316.683 28.3907C316.683 29.3624 316.866 30.2882 317.233 31.1682C317.618 32.0299 318.131 32.7907 318.773 33.4507C319.433 34.0923 320.193 34.6057 321.055 34.9907C321.917 35.3573 322.843 35.5407 323.833 35.5407C324.823 35.5407 325.748 35.3573 326.61 34.9907C327.49 34.6057 328.251 34.0923 328.892 33.4507C329.534 32.7907 330.038 32.0299 330.405 31.1682C330.772 30.2882 330.955 29.3624 330.955 28.3907C330.955 27.4007 330.772 26.4749 330.405 25.6133C330.038 24.7333 329.534 23.9724 328.892 23.3308C328.251 22.6891 327.49 22.185 326.61 21.8183C325.748 21.4333 324.823 21.2408 323.833 21.2408C322.861 21.2408 321.935 21.4333 321.055 21.8183C320.193 22.185 319.433 22.6891 318.773 23.3308C318.131 23.9724 317.618 24.7333 317.233 25.6133C316.866 26.4749 316.683 27.4007 316.683 28.3907Z" fill="#AE4D35"/>
<path d="M364.938 30.8385C365.176 31.5168 365.506 32.1402 365.928 32.7085C366.368 33.2585 366.872 33.7351 367.44 34.1385C368.008 34.5235 368.632 34.826 369.31 35.046C369.988 35.2476 370.703 35.3485 371.455 35.3485C373.343 35.3485 374.828 34.8535 375.91 33.8635C376.277 33.6068 376.634 33.4235 376.983 33.3135C377.331 33.1852 377.661 33.121 377.973 33.121C378.486 33.121 378.944 33.2585 379.347 33.5335C379.751 33.7901 380.081 34.1293 380.337 34.551C380.521 34.8443 380.649 35.1651 380.722 35.5135C380.814 35.8435 380.832 36.1826 380.777 36.5309C380.741 36.8793 380.631 37.2276 380.447 37.5759C380.282 37.9059 380.026 38.2084 379.677 38.4834C379.274 38.8501 378.816 39.2076 378.302 39.5559C377.789 39.8859 377.193 40.1792 376.515 40.4359C375.855 40.6926 375.103 40.8942 374.26 41.0409C373.435 41.2059 372.5 41.2884 371.455 41.2884C369.64 41.2884 367.935 40.9492 366.34 40.2709C364.745 39.5743 363.352 38.6301 362.16 37.4384C360.969 36.2468 360.024 34.8626 359.328 33.286C358.631 31.691 358.283 29.986 358.283 28.171C358.283 26.3561 358.631 24.6511 359.328 23.0561C360.024 21.4611 360.969 20.077 362.16 18.9036C363.352 17.712 364.745 16.777 366.34 16.0987C367.935 15.402 369.64 15.0537 371.455 15.0537C373.252 15.0537 374.938 15.3928 376.515 16.0712C378.11 16.7495 379.503 17.6753 380.695 18.8486C381.905 20.0036 382.858 21.3694 383.555 22.9461C384.27 24.5227 384.637 26.2094 384.655 28.006C384.655 28.8494 384.38 29.5369 383.83 30.0685C383.298 30.5818 382.592 30.8385 381.712 30.8385H364.938ZM378.522 25.8886C378.321 25.1369 378 24.4586 377.56 23.8536C377.138 23.2486 376.625 22.7353 376.02 22.3136C375.415 21.8919 374.737 21.5711 373.985 21.3511C373.233 21.1311 372.436 21.0211 371.593 21.0211C370.749 21.0211 369.952 21.1403 369.2 21.3786C368.467 21.5986 367.798 21.9286 367.193 22.3686C366.606 22.7903 366.102 23.3036 365.68 23.9086C365.258 24.4952 364.947 25.1552 364.745 25.8886H378.522Z" fill="#AE4D35"/>
<path fill-rule="evenodd" clip-rule="evenodd" d="M291.787 17.5784C291.952 17.9451 292.007 18.3392 292.007 18.7609V19.0187C292.006 18.6012 291.933 17.9418 291.787 17.5784C291.64 17.2301 291.43 16.9184 291.155 16.6434C290.898 16.3868 290.595 16.1851 290.247 16.0384C289.899 15.8918 289.514 15.8184 289.092 15.8184C288.689 15.8184 288.304 15.8918 287.937 16.0384C287.571 16.1851 287.241 16.3868 286.947 16.6434C286.672 16.9184 286.452 17.2301 286.287 17.5784C286.122 17.9451 286.04 18.6082 286.04 19.0299V28.858V29.1269C286.04 30.8869 286.351 32.5277 286.975 34.0493C287.529 35.3791 288.254 36.5586 289.15 37.5876C289.004 37.7701 288.85 37.9471 288.684 38.1184C287.68 39.1722 286.862 39.7138 286.083 40.2297C286.008 40.2792 285.934 40.3285 285.86 40.378C285.012 40.9429 283.665 41.5078 281.905 41.5078C280.164 41.5078 278.761 41.4467 277.24 40.7868C275.736 40.1268 274.426 39.2193 273.307 38.0643C272.207 36.9276 271.337 35.5893 270.695 34.0493C270.072 32.5277 269.76 30.8869 269.76 29.1269V18.7609C269.76 18.3392 269.842 17.9451 270.007 17.5784C270.172 17.2301 270.392 16.9184 270.667 16.6434C270.961 16.3868 271.291 16.1851 271.657 16.0384C272.024 15.8918 272.409 15.8184 272.812 15.8184C273.234 15.8184 273.619 15.8918 273.967 16.0384C274.316 16.1851 274.618 16.3868 274.875 16.6434C275.15 16.9184 275.361 17.2301 275.507 17.5784C275.654 17.9451 275.727 18.3392 275.727 18.7609V29.1269C275.727 30.0619 275.883 30.9327 276.195 31.7393C276.525 32.5643 276.965 33.2793 277.515 33.8843C278.083 34.4893 278.761 34.9568 279.55 35.2868C280.338 35.6351 282.135 35.2868 282.135 35.2868C283.035 35.0114 283.574 34.4985 284.142 33.9118C284.711 33.3252 285.16 32.6377 285.49 31.8493C285.82 31.061 285.976 30.2519 286.012 29.3536V28.9894L286.04 18.7609C286.04 18.3392 286.122 17.9451 286.287 17.5784C286.452 17.2301 286.672 16.9184 286.947 16.6434C287.222 16.3868 287.571 16.1851 287.937 16.0384C288.322 15.8918 288.689 15.8184 289.092 15.8184C289.495 15.8184 289.899 15.8918 290.247 16.0384C290.614 16.1851 290.898 16.3868 291.155 16.6434C291.411 16.9184 291.64 17.2301 291.787 17.5784ZM292.007 28.8579C292.007 30.6179 291.659 32.5277 291.017 34.0493C290.488 35.3573 289.968 36.5588 289.15 37.5876C289.291 37.7503 289.437 37.9092 289.587 38.0643C290.705 39.2193 292.016 40.1268 293.52 40.7868C295.041 41.4468 296.443 41.5078 298.185 41.5078C299.945 41.5078 301.292 40.9429 302.139 40.378C302.212 40.3297 302.284 40.2816 302.357 40.2333L302.363 40.2297C303.142 39.7138 303.96 39.1722 304.964 38.1184C306.064 36.9817 306.674 35.5893 307.297 34.0493C307.939 32.5277 308.287 30.6179 308.287 28.8579V18.7609C308.287 18.3393 308.232 17.9451 308.067 17.5784C307.92 17.2301 307.691 16.9184 307.434 16.6434C307.178 16.3868 306.894 16.1851 306.527 16.0384C306.179 15.8918 305.775 15.8184 305.372 15.8184C304.969 15.8184 304.602 15.8918 304.217 16.0384C303.85 16.1851 303.502 16.3868 303.227 16.6434C302.952 16.9184 302.732 17.2301 302.567 17.5784C302.402 17.9451 302.32 18.3393 302.32 18.7609L302.292 28.9894V29.3536C302.255 30.2519 302.1 31.061 301.77 31.8493C301.44 32.6377 300.99 33.3252 300.422 33.9118C299.854 34.4985 299.315 35.0114 298.415 35.2868C298.415 35.2868 296.618 35.6351 295.83 35.2868C295.041 34.9568 294.363 34.4893 293.795 33.8843C293.245 33.2793 292.805 32.5643 292.475 31.7394C292.163 30.9327 292.007 30.0619 292.007 29.1269V28.8579Z" fill="#AE4D35"/>
<path d="M291.017 34.0493C291.659 32.5277 292.007 30.6179 292.007 28.8579V19.0299V19.0187C292.006 18.6012 291.933 17.9418 291.787 17.5784C291.64 17.2301 291.43 16.9184 291.155 16.6434C290.898 16.3868 290.595 16.1851 290.247 16.0384C289.899 15.8918 289.514 15.8184 289.092 15.8184C288.689 15.8184 288.304 15.8918 287.937 16.0384C287.571 16.1851 287.241 16.3868 286.947 16.6434C286.672 16.9184 286.452 17.2301 286.287 17.5784C286.122 17.9451 286.04 18.6082 286.04 19.0299V28.858V29.1269C286.04 30.8869 286.351 32.5277 286.975 34.0493C287.529 35.3791 288.254 36.5586 289.15 37.5876C289.968 36.5588 290.488 35.3573 291.017 34.0493Z" fill="#AE4D35"/>
</g>
<defs>
<clipPath id="clip0_2419_26433">
<rect width="385" height="55" fill="white"/>
</clipPath>
</defs>
</svg>
