<svg width="291" height="51" viewBox="0 0 291 51" fill="none" xmlns="http://www.w3.org/2000/svg">
<g filter="url(#filter0_d_2464_14343)">
<rect x="12.4482" y="7.1123" width="13.6407" height="36.5375" rx="6.82033" fill="#FFF2EF"/>
</g>
<g filter="url(#filter1_d_2464_14343)">
<rect x="37.5371" y="18.5605" width="13.6407" height="36.5375" rx="6.82033" transform="rotate(90 37.5371 18.5605)" fill="#FFF2EF"/>
</g>
<g filter="url(#filter2_d_2464_14343)">
<path fill-rule="evenodd" clip-rule="evenodd" d="M80.2963 7.5791C81.6619 7.5791 82.7689 8.68612 82.7689 10.0517V14.0078C82.7689 16.4658 84.7615 18.4585 87.2196 18.4585H90.6812C92.0467 18.4585 93.1538 19.5655 93.1538 20.9311C93.1538 22.2966 92.0467 23.4036 90.6812 23.4036H87.2196C82.0304 23.4036 77.8237 19.197 77.8237 14.0078V10.0517C77.8237 8.68612 78.9307 7.5791 80.2963 7.5791Z" fill="#FFF2EF"/>
</g>
<g filter="url(#filter3_d_2464_14343)">
<path fill-rule="evenodd" clip-rule="evenodd" d="M71.3951 7.5791C70.0295 7.5791 68.9225 8.68612 68.9225 10.0517V14.0078C68.9225 16.4658 66.9299 18.4585 64.4718 18.4585H61.0102C59.6447 18.4585 58.5376 19.5655 58.5376 20.9311C58.5376 22.2966 59.6447 23.4036 61.0102 23.4036H64.4718C69.661 23.4036 73.8677 19.197 73.8677 14.0078V10.0517C73.8677 8.68612 72.7607 7.5791 71.3951 7.5791Z" fill="#FFF2EF"/>
</g>
<g filter="url(#filter4_d_2464_14343)">
<path fill-rule="evenodd" clip-rule="evenodd" d="M80.2968 43.1846C81.6624 43.1846 82.7694 42.0776 82.7694 40.712V36.7559C82.7694 34.2978 84.762 32.3052 87.22 32.3052H90.6817C92.0472 32.3052 93.1543 31.1982 93.1543 29.8326C93.1543 28.467 92.0472 27.36 90.6817 27.36H87.22C82.0309 27.36 77.8242 31.5667 77.8242 36.7559V40.712C77.8242 42.0776 78.9312 43.1846 80.2968 43.1846Z" fill="#FFF2EF"/>
</g>
<g filter="url(#filter5_d_2464_14343)">
<path fill-rule="evenodd" clip-rule="evenodd" d="M71.3951 43.1846C70.0295 43.1846 68.9225 42.0776 68.9225 40.712V36.7559C68.9225 34.2978 66.9299 32.3052 64.4718 32.3052H61.0102C59.6447 32.3052 58.5376 31.1982 58.5376 29.8326C58.5376 28.467 59.6447 27.36 61.0102 27.36H64.4718C69.661 27.36 73.8677 31.5667 73.8677 36.7559V40.712C73.8677 42.0776 72.7607 43.1846 71.3951 43.1846Z" fill="#FFF2EF"/>
</g>
<g filter="url(#filter6_d_2464_14343)">
<path fill-rule="evenodd" clip-rule="evenodd" d="M135.913 7.5791C137.279 7.5791 138.386 8.68612 138.386 10.0517V14.0078C138.386 16.4658 140.378 18.4585 142.836 18.4585H146.298C147.663 18.4585 148.77 19.5655 148.77 20.9311C148.77 22.2966 147.663 23.4036 146.298 23.4036H142.836C137.647 23.4036 133.44 19.197 133.44 14.0078V10.0517C133.44 8.68612 134.547 7.5791 135.913 7.5791Z" fill="#FFF2EF"/>
<path fill-rule="evenodd" clip-rule="evenodd" d="M135.913 7.5791C137.279 7.5791 138.386 8.68612 138.386 10.0517V14.0078C138.386 16.4658 140.378 18.4585 142.836 18.4585H146.298C147.663 18.4585 148.77 19.5655 148.77 20.9311C148.77 22.2966 147.663 23.4036 146.298 23.4036H142.836C137.647 23.4036 133.44 19.197 133.44 14.0078V10.0517C133.44 8.68612 134.547 7.5791 135.913 7.5791Z" stroke="white" stroke-width="1.26642" stroke-linecap="round" stroke-linejoin="bevel"/>
</g>
<g filter="url(#filter7_d_2464_14343)">
<path fill-rule="evenodd" clip-rule="evenodd" d="M127.012 7.5791C125.646 7.5791 124.539 8.68612 124.539 10.0517V14.0078C124.539 16.4658 122.547 18.4585 120.089 18.4585H116.627C115.261 18.4585 114.154 19.5655 114.154 20.9311C114.154 22.2966 115.261 23.4036 116.627 23.4036H120.089C125.278 23.4036 129.484 19.197 129.484 14.0078V10.0517C129.484 8.68612 128.377 7.5791 127.012 7.5791Z" fill="#FFF2EF"/>
<path fill-rule="evenodd" clip-rule="evenodd" d="M127.012 7.5791C125.646 7.5791 124.539 8.68612 124.539 10.0517V14.0078C124.539 16.4658 122.547 18.4585 120.089 18.4585H116.627C115.261 18.4585 114.154 19.5655 114.154 20.9311C114.154 22.2966 115.261 23.4036 116.627 23.4036H120.089C125.278 23.4036 129.484 19.197 129.484 14.0078V10.0517C129.484 8.68612 128.377 7.5791 127.012 7.5791Z" stroke="white" stroke-width="1.26642" stroke-linecap="round" stroke-linejoin="bevel"/>
</g>
<g filter="url(#filter8_d_2464_14343)">
<path fill-rule="evenodd" clip-rule="evenodd" d="M135.914 43.1846C137.279 43.1846 138.386 42.0776 138.386 40.712V36.7559C138.386 34.2978 140.379 32.3052 142.837 32.3052H146.298C147.664 32.3052 148.771 31.1982 148.771 29.8326C148.771 28.467 147.664 27.36 146.298 27.36H142.837C137.648 27.36 133.441 31.5667 133.441 36.7559V40.712C133.441 42.0776 134.548 43.1846 135.914 43.1846Z" fill="#FFF2EF"/>
<path fill-rule="evenodd" clip-rule="evenodd" d="M135.914 43.1846C137.279 43.1846 138.386 42.0776 138.386 40.712V36.7559C138.386 34.2978 140.379 32.3052 142.837 32.3052H146.298C147.664 32.3052 148.771 31.1982 148.771 29.8326C148.771 28.467 147.664 27.36 146.298 27.36H142.837C137.648 27.36 133.441 31.5667 133.441 36.7559V40.712C133.441 42.0776 134.548 43.1846 135.914 43.1846Z" stroke="white" stroke-width="1.26642" stroke-linecap="round" stroke-linejoin="bevel"/>
</g>
<g filter="url(#filter9_d_2464_14343)">
<path fill-rule="evenodd" clip-rule="evenodd" d="M127.012 43.1846C125.646 43.1846 124.539 42.0776 124.539 40.712V36.7559C124.539 34.2978 122.547 32.3052 120.089 32.3052H116.627C115.261 32.3052 114.154 31.1982 114.154 29.8326C114.154 28.467 115.261 27.36 116.627 27.36H120.089C125.278 27.36 129.484 31.5667 129.484 36.7559V40.712C129.484 42.0776 128.377 43.1846 127.012 43.1846Z" fill="#FFF2EF"/>
<path fill-rule="evenodd" clip-rule="evenodd" d="M127.012 43.1846C125.646 43.1846 124.539 42.0776 124.539 40.712V36.7559C124.539 34.2978 122.547 32.3052 120.089 32.3052H116.627C115.261 32.3052 114.154 31.1982 114.154 29.8326C114.154 28.467 115.261 27.36 116.627 27.36H120.089C125.278 27.36 129.484 31.5667 129.484 36.7559V40.712C129.484 42.0776 128.377 43.1846 127.012 43.1846Z" stroke="white" stroke-width="1.26642" stroke-linecap="round" stroke-linejoin="bevel"/>
</g>
<g filter="url(#filter10_d_2464_14343)">
<path fill-rule="evenodd" clip-rule="evenodd" d="M185.156 9.64517C186.122 8.67957 187.687 8.67957 188.653 9.64517L191.45 12.4426C193.188 14.1807 196.006 14.1807 197.744 12.4426L200.192 9.99485C201.158 9.02925 202.723 9.02925 203.689 9.99485C204.655 10.9605 204.655 12.526 203.689 13.4916L201.241 15.9393C197.572 19.6086 191.623 19.6086 187.954 15.9393L185.156 13.1419C184.19 12.1763 184.19 10.6108 185.156 9.64517Z" fill="#FFF2EF"/>
</g>
<g filter="url(#filter11_d_2464_14343)">
<path fill-rule="evenodd" clip-rule="evenodd" d="M178.862 15.9398C177.897 16.9054 177.897 18.4709 178.862 19.4365L181.66 22.234C183.398 23.972 183.398 26.79 181.66 28.5281L179.212 30.9759C178.247 31.9415 178.247 33.507 179.212 34.4726C180.178 35.4382 181.743 35.4382 182.709 34.4726L185.157 32.0249C188.826 28.3556 188.826 22.4065 185.157 18.7372L182.359 15.9398C181.394 14.9742 179.828 14.9742 178.862 15.9398Z" fill="#FFF2EF"/>
</g>
<g filter="url(#filter12_d_2464_14343)">
<path fill-rule="evenodd" clip-rule="evenodd" d="M210.334 34.8219C211.299 33.8563 211.299 32.2908 210.334 31.3252L207.536 28.5278C205.798 26.7897 205.798 23.9717 207.536 22.2336L209.984 19.7859C210.95 18.8203 210.95 17.2547 209.984 16.2891C209.019 15.3235 207.453 15.3235 206.487 16.2891L204.04 18.7368C200.37 22.4061 200.37 28.3552 204.04 32.0245L206.837 34.8219C207.803 35.7875 209.368 35.7875 210.334 34.8219Z" fill="#FFF2EF"/>
</g>
<g filter="url(#filter13_d_2464_14343)">
<path fill-rule="evenodd" clip-rule="evenodd" d="M204.039 41.1165C203.073 42.0821 201.508 42.0821 200.542 41.1165L197.745 38.3191C196.006 36.581 193.188 36.581 191.45 38.3191L189.003 40.7669C188.037 41.7325 186.471 41.7325 185.506 40.7669C184.54 39.8013 184.54 38.2357 185.506 37.2701L187.954 34.8224C191.623 31.1531 197.572 31.1531 201.241 34.8224L204.039 37.6198C205.004 38.5854 205.004 40.1509 204.039 41.1165Z" fill="#FFF2EF"/>
</g>
<g filter="url(#filter14_d_2464_14343)">
<path d="M275.258 25.5643C275.258 26.1207 275.37 26.6713 275.595 27.2159C275.832 27.7606 276.146 28.2519 276.536 28.69C276.939 29.1162 277.406 29.4655 277.939 29.7378C278.472 30.0102 279.046 30.1522 279.662 30.1641C280.301 30.1641 280.864 30.0871 281.349 29.9332C281.846 29.7674 282.344 29.4774 282.841 29.063C283.078 28.8617 283.338 28.6782 283.622 28.5124C283.918 28.3348 284.238 28.246 284.582 28.246C284.783 28.246 284.996 28.2934 285.221 28.3881C285.446 28.471 285.677 28.613 285.913 28.8143C286.115 28.9919 286.263 29.205 286.357 29.4537C286.464 29.6905 286.511 29.945 286.5 30.2174C286.5 30.4778 286.44 30.7383 286.322 30.9988C286.215 31.2593 286.05 31.5079 285.825 31.7447C285.091 32.4906 284.214 33.0589 283.196 33.4497C282.19 33.8404 281.13 34.0357 280.017 34.0357C278.833 34.0357 277.72 33.8226 276.678 33.3964C275.636 32.9583 274.725 32.3604 273.943 31.6026C273.162 30.8449 272.546 29.9569 272.096 28.9386C271.646 27.9086 271.421 26.8015 271.421 25.6175C271.433 25.6057 271.439 25.5939 271.439 25.582H271.421C271.421 24.398 271.646 23.291 272.096 22.2609C272.546 21.219 273.162 20.3192 273.943 19.5614C274.725 18.7918 275.636 18.188 276.678 17.7499C277.72 17.3118 278.833 17.0928 280.017 17.0928C281.13 17.0928 282.19 17.2822 283.196 17.6611C284.214 18.0281 285.091 18.5846 285.825 19.3305C286.05 19.5555 286.221 19.8041 286.34 20.0764C286.458 20.3369 286.517 20.6033 286.517 20.8756C286.529 21.1361 286.482 21.3907 286.375 21.6393C286.269 21.8761 286.109 22.0892 285.896 22.2787C285.659 22.4799 285.434 22.622 285.221 22.7049C285.008 22.7878 284.801 22.8292 284.599 22.8292C284.256 22.8292 283.936 22.7463 283.64 22.5806C283.356 22.403 283.09 22.2136 282.841 22.0123C282.344 21.6334 281.852 21.3611 281.367 21.1953C280.882 21.0296 280.372 20.9467 279.84 20.9467C279.236 20.9467 278.656 21.071 278.099 21.3196C277.543 21.5683 277.057 21.9057 276.643 22.332C276.228 22.7582 275.897 23.2495 275.648 23.806C275.4 24.3625 275.275 24.9427 275.275 25.5465L275.258 25.5643Z" fill="#FFF2EF"/>
</g>
<g filter="url(#filter15_d_2464_14343)">
<path fill-rule="evenodd" clip-rule="evenodd" d="M275.459 9.29463C274.472 8.30748 272.871 8.30748 271.884 9.29463L269.024 12.1545C267.247 13.9313 264.366 13.9313 262.589 12.1545L260.087 9.65211C259.1 8.66496 257.499 8.66496 256.512 9.65211C255.525 10.6393 255.525 12.2398 256.512 13.2269L259.015 15.7293C262.766 19.4805 268.848 19.4805 272.599 15.7293L275.459 12.8694C276.446 11.8823 276.446 10.2818 275.459 9.29463Z" fill="#FFF2EF"/>
</g>
<g filter="url(#filter16_d_2464_14343)">
<path fill-rule="evenodd" clip-rule="evenodd" d="M256.155 41.4681C257.142 42.4552 258.742 42.4552 259.729 41.4681L262.589 38.6082C264.366 36.8313 267.247 36.8313 269.024 38.6082L271.526 41.1106C272.513 42.0977 274.114 42.0977 275.101 41.1106C276.088 40.1234 276.088 38.5229 275.101 37.5358L272.599 35.0334C268.847 31.2822 262.766 31.2822 259.014 35.0334L256.155 37.8933C255.167 38.8804 255.167 40.4809 256.155 41.4681Z" fill="#FFF2EF"/>
</g>
<g filter="url(#filter17_d_2464_14343)">
<path fill-rule="evenodd" clip-rule="evenodd" d="M249.72 35.0329C248.733 34.0458 248.733 32.4453 249.72 31.4581L252.58 28.5983C254.357 26.8214 254.357 23.9405 252.58 22.1636L250.078 19.6613C249.091 18.6741 249.091 17.0736 250.078 16.0865C251.065 15.0993 252.666 15.0993 253.653 16.0865L256.155 18.5888C259.906 22.34 259.906 28.4219 256.155 32.1731L253.295 35.0329C252.308 36.0201 250.708 36.0201 249.72 35.0329Z" fill="#FFF2EF"/>
</g>
<defs>
<filter id="filter0_d_2464_14343" x="11.6982" y="6.3623" width="15.1406" height="38.0371" filterUnits="userSpaceOnUse" color-interpolation-filters="sRGB">
<feFlood flood-opacity="0" result="BackgroundImageFix"/>
<feColorMatrix in="SourceAlpha" type="matrix" values="0 0 0 0 0 0 0 0 0 0 0 0 0 0 0 0 0 0 127 0" result="hardAlpha"/>
<feOffset/>
<feGaussianBlur stdDeviation="0.375"/>
<feComposite in2="hardAlpha" operator="out"/>
<feColorMatrix type="matrix" values="0 0 0 0 0.719385 0 0 0 0 0.719385 0 0 0 0 0.719385 0 0 0 0.25 0"/>
<feBlend mode="normal" in2="BackgroundImageFix" result="effect1_dropShadow_2464_14343"/>
<feBlend mode="normal" in="SourceGraphic" in2="effect1_dropShadow_2464_14343" result="shape"/>
</filter>
<filter id="filter1_d_2464_14343" x="0.249512" y="17.8105" width="38.0376" height="15.1406" filterUnits="userSpaceOnUse" color-interpolation-filters="sRGB">
<feFlood flood-opacity="0" result="BackgroundImageFix"/>
<feColorMatrix in="SourceAlpha" type="matrix" values="0 0 0 0 0 0 0 0 0 0 0 0 0 0 0 0 0 0 127 0" result="hardAlpha"/>
<feOffset/>
<feGaussianBlur stdDeviation="0.375"/>
<feComposite in2="hardAlpha" operator="out"/>
<feColorMatrix type="matrix" values="0 0 0 0 0.719385 0 0 0 0 0.719385 0 0 0 0 0.719385 0 0 0 0.25 0"/>
<feBlend mode="normal" in2="BackgroundImageFix" result="effect1_dropShadow_2464_14343"/>
<feBlend mode="normal" in="SourceGraphic" in2="effect1_dropShadow_2464_14343" result="shape"/>
</filter>
<filter id="filter2_d_2464_14343" x="77.0737" y="6.8291" width="16.8301" height="17.3242" filterUnits="userSpaceOnUse" color-interpolation-filters="sRGB">
<feFlood flood-opacity="0" result="BackgroundImageFix"/>
<feColorMatrix in="SourceAlpha" type="matrix" values="0 0 0 0 0 0 0 0 0 0 0 0 0 0 0 0 0 0 127 0" result="hardAlpha"/>
<feOffset/>
<feGaussianBlur stdDeviation="0.375"/>
<feComposite in2="hardAlpha" operator="out"/>
<feColorMatrix type="matrix" values="0 0 0 0 0.719385 0 0 0 0 0.719385 0 0 0 0 0.719385 0 0 0 0.25 0"/>
<feBlend mode="normal" in2="BackgroundImageFix" result="effect1_dropShadow_2464_14343"/>
<feBlend mode="normal" in="SourceGraphic" in2="effect1_dropShadow_2464_14343" result="shape"/>
</filter>
<filter id="filter3_d_2464_14343" x="57.7876" y="6.8291" width="16.8301" height="17.3242" filterUnits="userSpaceOnUse" color-interpolation-filters="sRGB">
<feFlood flood-opacity="0" result="BackgroundImageFix"/>
<feColorMatrix in="SourceAlpha" type="matrix" values="0 0 0 0 0 0 0 0 0 0 0 0 0 0 0 0 0 0 127 0" result="hardAlpha"/>
<feOffset/>
<feGaussianBlur stdDeviation="0.375"/>
<feComposite in2="hardAlpha" operator="out"/>
<feColorMatrix type="matrix" values="0 0 0 0 0.719385 0 0 0 0 0.719385 0 0 0 0 0.719385 0 0 0 0.25 0"/>
<feBlend mode="normal" in2="BackgroundImageFix" result="effect1_dropShadow_2464_14343"/>
<feBlend mode="normal" in="SourceGraphic" in2="effect1_dropShadow_2464_14343" result="shape"/>
</filter>
<filter id="filter4_d_2464_14343" x="77.0742" y="26.6104" width="16.8301" height="17.3242" filterUnits="userSpaceOnUse" color-interpolation-filters="sRGB">
<feFlood flood-opacity="0" result="BackgroundImageFix"/>
<feColorMatrix in="SourceAlpha" type="matrix" values="0 0 0 0 0 0 0 0 0 0 0 0 0 0 0 0 0 0 127 0" result="hardAlpha"/>
<feOffset/>
<feGaussianBlur stdDeviation="0.375"/>
<feComposite in2="hardAlpha" operator="out"/>
<feColorMatrix type="matrix" values="0 0 0 0 0.719385 0 0 0 0 0.719385 0 0 0 0 0.719385 0 0 0 0.25 0"/>
<feBlend mode="normal" in2="BackgroundImageFix" result="effect1_dropShadow_2464_14343"/>
<feBlend mode="normal" in="SourceGraphic" in2="effect1_dropShadow_2464_14343" result="shape"/>
</filter>
<filter id="filter5_d_2464_14343" x="57.7876" y="26.6104" width="16.8301" height="17.3242" filterUnits="userSpaceOnUse" color-interpolation-filters="sRGB">
<feFlood flood-opacity="0" result="BackgroundImageFix"/>
<feColorMatrix in="SourceAlpha" type="matrix" values="0 0 0 0 0 0 0 0 0 0 0 0 0 0 0 0 0 0 127 0" result="hardAlpha"/>
<feOffset/>
<feGaussianBlur stdDeviation="0.375"/>
<feComposite in2="hardAlpha" operator="out"/>
<feColorMatrix type="matrix" values="0 0 0 0 0.719385 0 0 0 0 0.719385 0 0 0 0 0.719385 0 0 0 0.25 0"/>
<feBlend mode="normal" in2="BackgroundImageFix" result="effect1_dropShadow_2464_14343"/>
<feBlend mode="normal" in="SourceGraphic" in2="effect1_dropShadow_2464_14343" result="shape"/>
</filter>
<filter id="filter6_d_2464_14343" x="132.057" y="6.19629" width="18.0967" height="18.5908" filterUnits="userSpaceOnUse" color-interpolation-filters="sRGB">
<feFlood flood-opacity="0" result="BackgroundImageFix"/>
<feColorMatrix in="SourceAlpha" type="matrix" values="0 0 0 0 0 0 0 0 0 0 0 0 0 0 0 0 0 0 127 0" result="hardAlpha"/>
<feOffset/>
<feGaussianBlur stdDeviation="0.375"/>
<feComposite in2="hardAlpha" operator="out"/>
<feColorMatrix type="matrix" values="0 0 0 0 0.719385 0 0 0 0 0.719385 0 0 0 0 0.719385 0 0 0 0.25 0"/>
<feBlend mode="normal" in2="BackgroundImageFix" result="effect1_dropShadow_2464_14343"/>
<feBlend mode="normal" in="SourceGraphic" in2="effect1_dropShadow_2464_14343" result="shape"/>
</filter>
<filter id="filter7_d_2464_14343" x="112.771" y="6.19629" width="18.0967" height="18.5908" filterUnits="userSpaceOnUse" color-interpolation-filters="sRGB">
<feFlood flood-opacity="0" result="BackgroundImageFix"/>
<feColorMatrix in="SourceAlpha" type="matrix" values="0 0 0 0 0 0 0 0 0 0 0 0 0 0 0 0 0 0 127 0" result="hardAlpha"/>
<feOffset/>
<feGaussianBlur stdDeviation="0.375"/>
<feComposite in2="hardAlpha" operator="out"/>
<feColorMatrix type="matrix" values="0 0 0 0 0.719385 0 0 0 0 0.719385 0 0 0 0 0.719385 0 0 0 0.25 0"/>
<feBlend mode="normal" in2="BackgroundImageFix" result="effect1_dropShadow_2464_14343"/>
<feBlend mode="normal" in="SourceGraphic" in2="effect1_dropShadow_2464_14343" result="shape"/>
</filter>
<filter id="filter8_d_2464_14343" x="132.058" y="25.9766" width="18.0967" height="18.5908" filterUnits="userSpaceOnUse" color-interpolation-filters="sRGB">
<feFlood flood-opacity="0" result="BackgroundImageFix"/>
<feColorMatrix in="SourceAlpha" type="matrix" values="0 0 0 0 0 0 0 0 0 0 0 0 0 0 0 0 0 0 127 0" result="hardAlpha"/>
<feOffset/>
<feGaussianBlur stdDeviation="0.375"/>
<feComposite in2="hardAlpha" operator="out"/>
<feColorMatrix type="matrix" values="0 0 0 0 0.719385 0 0 0 0 0.719385 0 0 0 0 0.719385 0 0 0 0.25 0"/>
<feBlend mode="normal" in2="BackgroundImageFix" result="effect1_dropShadow_2464_14343"/>
<feBlend mode="normal" in="SourceGraphic" in2="effect1_dropShadow_2464_14343" result="shape"/>
</filter>
<filter id="filter9_d_2464_14343" x="112.771" y="25.9766" width="18.0967" height="18.5908" filterUnits="userSpaceOnUse" color-interpolation-filters="sRGB">
<feFlood flood-opacity="0" result="BackgroundImageFix"/>
<feColorMatrix in="SourceAlpha" type="matrix" values="0 0 0 0 0 0 0 0 0 0 0 0 0 0 0 0 0 0 127 0" result="hardAlpha"/>
<feOffset/>
<feGaussianBlur stdDeviation="0.375"/>
<feComposite in2="hardAlpha" operator="out"/>
<feColorMatrix type="matrix" values="0 0 0 0 0.719385 0 0 0 0 0.719385 0 0 0 0 0.719385 0 0 0 0.25 0"/>
<feBlend mode="normal" in2="BackgroundImageFix" result="effect1_dropShadow_2464_14343"/>
<feBlend mode="normal" in="SourceGraphic" in2="effect1_dropShadow_2464_14343" result="shape"/>
</filter>
<filter id="filter10_d_2464_14343" x="183.682" y="8.1709" width="21.481" height="11.2705" filterUnits="userSpaceOnUse" color-interpolation-filters="sRGB">
<feFlood flood-opacity="0" result="BackgroundImageFix"/>
<feColorMatrix in="SourceAlpha" type="matrix" values="0 0 0 0 0 0 0 0 0 0 0 0 0 0 0 0 0 0 127 0" result="hardAlpha"/>
<feOffset/>
<feGaussianBlur stdDeviation="0.375"/>
<feComposite in2="hardAlpha" operator="out"/>
<feColorMatrix type="matrix" values="0 0 0 0 0.719385 0 0 0 0 0.719385 0 0 0 0 0.719385 0 0 0 0.25 0"/>
<feBlend mode="normal" in2="BackgroundImageFix" result="effect1_dropShadow_2464_14343"/>
<feBlend mode="normal" in="SourceGraphic" in2="effect1_dropShadow_2464_14343" result="shape"/>
</filter>
<filter id="filter11_d_2464_14343" x="177.388" y="14.4658" width="11.2705" height="21.4814" filterUnits="userSpaceOnUse" color-interpolation-filters="sRGB">
<feFlood flood-opacity="0" result="BackgroundImageFix"/>
<feColorMatrix in="SourceAlpha" type="matrix" values="0 0 0 0 0 0 0 0 0 0 0 0 0 0 0 0 0 0 127 0" result="hardAlpha"/>
<feOffset/>
<feGaussianBlur stdDeviation="0.375"/>
<feComposite in2="hardAlpha" operator="out"/>
<feColorMatrix type="matrix" values="0 0 0 0 0.719385 0 0 0 0 0.719385 0 0 0 0 0.719385 0 0 0 0.25 0"/>
<feBlend mode="normal" in2="BackgroundImageFix" result="effect1_dropShadow_2464_14343"/>
<feBlend mode="normal" in="SourceGraphic" in2="effect1_dropShadow_2464_14343" result="shape"/>
</filter>
<filter id="filter12_d_2464_14343" x="200.538" y="14.8145" width="11.2705" height="21.4814" filterUnits="userSpaceOnUse" color-interpolation-filters="sRGB">
<feFlood flood-opacity="0" result="BackgroundImageFix"/>
<feColorMatrix in="SourceAlpha" type="matrix" values="0 0 0 0 0 0 0 0 0 0 0 0 0 0 0 0 0 0 127 0" result="hardAlpha"/>
<feOffset/>
<feGaussianBlur stdDeviation="0.375"/>
<feComposite in2="hardAlpha" operator="out"/>
<feColorMatrix type="matrix" values="0 0 0 0 0.719385 0 0 0 0 0.719385 0 0 0 0 0.719385 0 0 0 0.25 0"/>
<feBlend mode="normal" in2="BackgroundImageFix" result="effect1_dropShadow_2464_14343"/>
<feBlend mode="normal" in="SourceGraphic" in2="effect1_dropShadow_2464_14343" result="shape"/>
</filter>
<filter id="filter13_d_2464_14343" x="184.032" y="31.3203" width="21.481" height="11.2705" filterUnits="userSpaceOnUse" color-interpolation-filters="sRGB">
<feFlood flood-opacity="0" result="BackgroundImageFix"/>
<feColorMatrix in="SourceAlpha" type="matrix" values="0 0 0 0 0 0 0 0 0 0 0 0 0 0 0 0 0 0 127 0" result="hardAlpha"/>
<feOffset/>
<feGaussianBlur stdDeviation="0.375"/>
<feComposite in2="hardAlpha" operator="out"/>
<feColorMatrix type="matrix" values="0 0 0 0 0.719385 0 0 0 0 0.719385 0 0 0 0 0.719385 0 0 0 0.25 0"/>
<feBlend mode="normal" in2="BackgroundImageFix" result="effect1_dropShadow_2464_14343"/>
<feBlend mode="normal" in="SourceGraphic" in2="effect1_dropShadow_2464_14343" result="shape"/>
</filter>
<filter id="filter14_d_2464_14343" x="270.671" y="16.3428" width="16.5977" height="18.4434" filterUnits="userSpaceOnUse" color-interpolation-filters="sRGB">
<feFlood flood-opacity="0" result="BackgroundImageFix"/>
<feColorMatrix in="SourceAlpha" type="matrix" values="0 0 0 0 0 0 0 0 0 0 0 0 0 0 0 0 0 0 127 0" result="hardAlpha"/>
<feOffset/>
<feGaussianBlur stdDeviation="0.375"/>
<feComposite in2="hardAlpha" operator="out"/>
<feColorMatrix type="matrix" values="0 0 0 0 0.719385 0 0 0 0 0.719385 0 0 0 0 0.719385 0 0 0 0.25 0"/>
<feBlend mode="normal" in2="BackgroundImageFix" result="effect1_dropShadow_2464_14343"/>
<feBlend mode="normal" in="SourceGraphic" in2="effect1_dropShadow_2464_14343" result="shape"/>
</filter>
<filter id="filter15_d_2464_14343" x="255.022" y="7.80469" width="21.9272" height="11.4883" filterUnits="userSpaceOnUse" color-interpolation-filters="sRGB">
<feFlood flood-opacity="0" result="BackgroundImageFix"/>
<feColorMatrix in="SourceAlpha" type="matrix" values="0 0 0 0 0 0 0 0 0 0 0 0 0 0 0 0 0 0 127 0" result="hardAlpha"/>
<feOffset/>
<feGaussianBlur stdDeviation="0.375"/>
<feComposite in2="hardAlpha" operator="out"/>
<feColorMatrix type="matrix" values="0 0 0 0 0.719385 0 0 0 0 0.719385 0 0 0 0 0.719385 0 0 0 0.25 0"/>
<feBlend mode="normal" in2="BackgroundImageFix" result="effect1_dropShadow_2464_14343"/>
<feBlend mode="normal" in="SourceGraphic" in2="effect1_dropShadow_2464_14343" result="shape"/>
</filter>
<filter id="filter16_d_2464_14343" x="254.664" y="31.4697" width="21.9272" height="11.4883" filterUnits="userSpaceOnUse" color-interpolation-filters="sRGB">
<feFlood flood-opacity="0" result="BackgroundImageFix"/>
<feColorMatrix in="SourceAlpha" type="matrix" values="0 0 0 0 0 0 0 0 0 0 0 0 0 0 0 0 0 0 127 0" result="hardAlpha"/>
<feOffset/>
<feGaussianBlur stdDeviation="0.375"/>
<feComposite in2="hardAlpha" operator="out"/>
<feColorMatrix type="matrix" values="0 0 0 0 0.719385 0 0 0 0 0.719385 0 0 0 0 0.719385 0 0 0 0.25 0"/>
<feBlend mode="normal" in2="BackgroundImageFix" result="effect1_dropShadow_2464_14343"/>
<feBlend mode="normal" in="SourceGraphic" in2="effect1_dropShadow_2464_14343" result="shape"/>
</filter>
<filter id="filter17_d_2464_14343" x="248.23" y="14.5957" width="11.4883" height="21.9277" filterUnits="userSpaceOnUse" color-interpolation-filters="sRGB">
<feFlood flood-opacity="0" result="BackgroundImageFix"/>
<feColorMatrix in="SourceAlpha" type="matrix" values="0 0 0 0 0 0 0 0 0 0 0 0 0 0 0 0 0 0 127 0" result="hardAlpha"/>
<feOffset/>
<feGaussianBlur stdDeviation="0.375"/>
<feComposite in2="hardAlpha" operator="out"/>
<feColorMatrix type="matrix" values="0 0 0 0 0.719385 0 0 0 0 0.719385 0 0 0 0 0.719385 0 0 0 0.25 0"/>
<feBlend mode="normal" in2="BackgroundImageFix" result="effect1_dropShadow_2464_14343"/>
<feBlend mode="normal" in="SourceGraphic" in2="effect1_dropShadow_2464_14343" result="shape"/>
</filter>
</defs>
</svg>
