<svg width="416" height="417" viewBox="0 0 416 417" fill="none" xmlns="http://www.w3.org/2000/svg">
<path d="M142.073 0H274C352.424 0 416 63.5756 416 142V273.927C416 352.351 352.424 415.927 274 415.927H142.073C63.6483 415.927 0.0727844 352.351 0.0727844 273.927V142C0.0727844 63.5756 63.6485 0 142.073 0Z" fill="#F1F1F1"/>
<path d="M47.2988 113.122C47.2988 113.957 47.1301 114.783 46.7927 115.599C46.4376 116.416 45.9671 117.153 45.3811 117.81C44.7774 118.449 44.0761 118.973 43.277 119.381C42.478 119.79 41.6168 120.003 40.6935 120.021C39.7347 120.021 38.8913 119.905 38.1633 119.674C37.4175 119.426 36.6718 118.991 35.926 118.369C35.5709 118.067 35.1803 117.792 34.7541 117.544C34.3102 117.277 33.8308 117.144 33.3159 117.144C33.014 117.144 32.6944 117.215 32.3571 117.357C32.0197 117.482 31.6734 117.695 31.3183 117.996C31.0165 118.263 30.7945 118.582 30.6525 118.955C30.4927 119.31 30.4216 119.692 30.4394 120.101C30.4394 120.491 30.5282 120.882 30.7057 121.272C30.8655 121.663 31.1141 122.036 31.4515 122.391C32.5524 123.51 33.8663 124.362 35.3933 124.948C36.9026 125.534 38.4918 125.827 40.1608 125.827C41.9365 125.827 43.6055 125.507 45.1681 124.868C46.7306 124.211 48.0978 123.314 49.2697 122.178C50.4416 121.042 51.3649 119.71 52.0397 118.183C52.7144 116.638 53.0518 114.978 53.0518 113.202C53.034 113.185 53.0251 113.167 53.0251 113.149H53.0518C53.0518 111.373 52.7144 109.713 52.0397 108.168C51.3649 106.606 50.4416 105.256 49.2697 104.12C48.0978 102.966 46.7306 102.06 45.1681 101.403C43.6055 100.746 41.9365 100.418 40.1608 100.418C38.4918 100.418 36.9026 100.702 35.3933 101.27C33.8663 101.821 32.5524 102.655 31.4515 103.774C31.1141 104.111 30.8567 104.484 30.6791 104.892C30.5015 105.283 30.4128 105.683 30.4128 106.091C30.395 106.482 30.466 106.863 30.6258 107.236C30.7856 107.591 31.0253 107.911 31.345 108.195C31.7001 108.497 32.0374 108.71 32.3571 108.834C32.6767 108.959 32.9874 109.021 33.2892 109.021C33.8042 109.021 34.2836 108.896 34.7275 108.648C35.1536 108.382 35.5531 108.097 35.926 107.796C36.6718 107.227 37.4087 106.819 38.1367 106.57C38.8647 106.322 39.6282 106.198 40.4272 106.198C41.3327 106.198 42.2028 106.384 43.0373 106.757C43.8719 107.13 44.5999 107.636 45.2213 108.275C45.8428 108.914 46.34 109.651 46.7128 110.486C47.0857 111.32 47.2722 112.19 47.2722 113.096L47.2988 113.122Z" fill="white"/>
<path fill-rule="evenodd" clip-rule="evenodd" d="M46.9974 88.7248C48.4778 87.2443 50.878 87.2443 52.3585 88.7248L56.6473 93.0136C59.312 95.6783 63.6324 95.6783 66.2972 93.0136L70.0499 89.2609C71.5303 87.7805 73.9305 87.7805 75.4109 89.2609C76.8913 90.7413 76.8913 93.1415 75.4109 94.6219L71.6582 98.3746C66.0326 104 56.9118 104 51.2862 98.3746L46.9974 94.0858C45.517 92.6054 45.517 90.2052 46.9974 88.7248Z" fill="white"/>
<path fill-rule="evenodd" clip-rule="evenodd" d="M75.9472 136.973C74.4668 138.454 72.0665 138.454 70.5861 136.973L66.2973 132.685C63.6326 130.02 59.3122 130.02 56.6474 132.685L52.8947 136.437C51.4143 137.918 49.0141 137.918 47.5337 136.437C46.0532 134.957 46.0532 132.557 47.5337 131.076L51.2864 127.324C56.9119 121.698 66.0328 121.698 71.6583 127.324L75.9472 131.612C77.4276 133.093 77.4276 135.493 75.9472 136.973Z" fill="white"/>
<path fill-rule="evenodd" clip-rule="evenodd" d="M85.5968 127.323C87.0772 125.843 87.0772 123.443 85.5968 121.962L81.3079 117.674C78.6432 115.009 78.6432 110.688 81.3079 108.024L85.0607 104.271C86.5411 102.791 86.5411 100.39 85.0607 98.9099C83.5803 97.4295 81.18 97.4295 79.6996 98.9099L75.9469 102.663C70.3214 108.288 70.3214 117.409 75.9469 123.035L80.2357 127.323C81.7162 128.804 84.1164 128.804 85.5968 127.323Z" fill="white"/>
<rect width="20.4565" height="54.7943" rx="10.2283" transform="matrix(-1 0 0 1 383.009 85.0156)" fill="white"/>
<rect width="20.4565" height="54.7943" rx="10.2283" transform="matrix(4.37114e-08 1 1 -4.37114e-08 345.384 102.186)" fill="white"/>
<path fill-rule="evenodd" clip-rule="evenodd" d="M285.755 86.4121C283.707 86.4121 282.047 88.0723 282.047 90.1202V96.0531C282.047 99.7393 279.058 102.728 275.372 102.728H270.181C268.133 102.728 266.473 104.388 266.473 106.436C266.473 108.484 268.133 110.144 270.181 110.144H275.372C283.154 110.144 289.463 103.835 289.463 96.0531V90.1202C289.463 88.0723 287.803 86.4121 285.755 86.4121Z" fill="white"/>
<path fill-rule="evenodd" clip-rule="evenodd" d="M299.104 86.4121C301.152 86.4121 302.812 88.0723 302.812 90.1202V96.0531C302.812 99.7393 305.8 102.728 309.486 102.728H314.678C316.726 102.728 318.386 104.388 318.386 106.436C318.386 108.484 316.726 110.144 314.678 110.144H309.486C301.704 110.144 295.396 103.835 295.396 96.0531V90.1202C295.396 88.0723 297.056 86.4121 299.104 86.4121Z" fill="white"/>
<path fill-rule="evenodd" clip-rule="evenodd" d="M285.755 139.809C283.707 139.809 282.047 138.148 282.047 136.101V130.168C282.047 126.481 279.058 123.493 275.372 123.493H270.181C268.133 123.493 266.473 121.833 266.473 119.785C266.473 117.737 268.133 116.077 270.181 116.077H275.372C283.154 116.077 289.463 122.386 289.463 130.168V136.101C289.463 138.148 287.803 139.809 285.755 139.809Z" fill="white"/>
<path fill-rule="evenodd" clip-rule="evenodd" d="M299.104 139.809C301.152 139.809 302.812 138.148 302.812 136.101V130.168C302.812 126.481 305.8 123.493 309.486 123.493H314.678C316.726 123.493 318.386 121.833 318.386 119.785C318.386 117.737 316.726 116.077 314.678 116.077H309.486C301.704 116.077 295.396 122.386 295.396 130.168V136.101C295.396 138.148 297.056 139.809 299.104 139.809Z" fill="white"/>
<path fill-rule="evenodd" clip-rule="evenodd" d="M122.933 86.4121C120.885 86.4121 119.224 88.0723 119.224 90.1202V96.0531C119.224 99.7393 116.236 102.728 112.55 102.728H107.359C105.311 102.728 103.651 104.388 103.651 106.436C103.651 108.484 105.311 110.144 107.359 110.144H112.55C120.332 110.144 126.641 103.835 126.641 96.0531V90.1202C126.641 88.0723 124.98 86.4121 122.933 86.4121Z" fill="white" stroke="white" stroke-width="1.89921" stroke-linecap="round" stroke-linejoin="bevel"/>
<path fill-rule="evenodd" clip-rule="evenodd" d="M136.282 86.4121C138.329 86.4121 139.99 88.0723 139.99 90.1202V96.0531C139.99 99.7393 142.978 102.728 146.664 102.728H151.855C153.903 102.728 155.564 104.388 155.564 106.436C155.564 108.484 153.903 110.144 151.855 110.144H146.664C138.882 110.144 132.573 103.835 132.573 96.0531V90.1202C132.573 88.0723 134.234 86.4121 136.282 86.4121Z" fill="white" stroke="white" stroke-width="1.89921" stroke-linecap="round" stroke-linejoin="bevel"/>
<path fill-rule="evenodd" clip-rule="evenodd" d="M122.933 139.809C120.885 139.809 119.224 138.148 119.224 136.101V130.168C119.224 126.481 116.236 123.493 112.55 123.493H107.359C105.311 123.493 103.651 121.833 103.651 119.785C103.651 117.737 105.311 116.077 107.359 116.077H112.55C120.332 116.077 126.641 122.386 126.641 130.168V136.101C126.641 138.148 124.98 139.809 122.933 139.809Z" fill="white" stroke="white" stroke-width="1.89921" stroke-linecap="round" stroke-linejoin="bevel"/>
<path fill-rule="evenodd" clip-rule="evenodd" d="M136.282 139.809C138.329 139.809 139.99 138.148 139.99 136.101V130.168C139.99 126.481 142.978 123.493 146.664 123.493H151.855C153.903 123.493 155.564 121.833 155.564 119.785C155.564 117.737 153.903 116.077 151.855 116.077H146.664C138.882 116.077 132.573 122.386 132.573 130.168V136.101C132.573 138.148 134.234 139.809 136.282 139.809Z" fill="white" stroke="white" stroke-width="1.89921" stroke-linecap="round" stroke-linejoin="bevel"/>
<path fill-rule="evenodd" clip-rule="evenodd" d="M223.723 89.5118C222.275 88.0637 219.927 88.0637 218.479 89.5118L214.284 93.707C211.677 96.3136 207.451 96.3136 204.844 93.707L201.173 90.0362C199.725 88.5881 197.378 88.5881 195.929 90.0362C194.481 91.4843 194.481 93.8321 195.929 95.2802L199.6 98.951C205.103 104.454 214.025 104.454 219.528 98.951L223.723 94.7558C225.171 93.3077 225.171 90.9599 223.723 89.5118Z" fill="white"/>
<path fill-rule="evenodd" clip-rule="evenodd" d="M233.162 98.9521C234.61 100.4 234.61 102.748 233.162 104.196L228.967 108.391C226.36 110.998 226.36 115.224 228.967 117.83L232.637 121.501C234.085 122.949 234.085 125.297 232.637 126.745C231.189 128.193 228.841 128.193 227.393 126.745L223.723 123.074C218.22 117.572 218.22 108.65 223.723 103.147L227.918 98.9521C229.366 97.504 231.714 97.504 233.162 98.9521Z" fill="white"/>
<path fill-rule="evenodd" clip-rule="evenodd" d="M185.965 127.27C184.517 125.822 184.517 123.474 185.965 122.026L190.16 117.83C192.767 115.224 192.767 110.998 190.16 108.391L186.489 104.72C185.041 103.272 185.041 100.924 186.489 99.4764C187.937 98.0283 190.285 98.0283 191.733 99.4764L195.404 103.147C200.907 108.65 200.907 117.572 195.404 123.074L191.209 127.27C189.761 128.718 187.413 128.718 185.965 127.27Z" fill="white"/>
<path fill-rule="evenodd" clip-rule="evenodd" d="M195.404 136.708C196.853 138.156 199.2 138.156 200.648 136.708L204.844 132.513C207.45 129.906 211.676 129.906 214.283 132.513L217.954 136.184C219.402 137.632 221.75 137.632 223.198 136.184C224.646 134.735 224.646 132.388 223.198 130.94L219.527 127.269C214.024 121.766 205.102 121.766 199.6 127.269L195.404 131.464C193.956 132.912 193.956 135.26 195.404 136.708Z" fill="white"/>
<path d="M47.299 244.166C47.299 245.001 47.1304 245.827 46.793 246.643C46.4379 247.46 45.9673 248.197 45.3814 248.854C44.7777 249.493 44.0763 250.017 43.2773 250.425C42.4783 250.834 41.6171 251.047 40.6938 251.065C39.7349 251.065 38.8915 250.949 38.1635 250.718C37.4178 250.47 36.672 250.035 35.9263 249.413C35.5711 249.111 35.1805 248.836 34.7544 248.588C34.3105 248.321 33.8311 248.188 33.3161 248.188C33.0143 248.188 32.6947 248.259 32.3573 248.401C32.0199 248.525 31.6737 248.739 31.3186 249.04C31.0167 249.307 30.7948 249.626 30.6527 249.999C30.4929 250.354 30.4219 250.736 30.4396 251.145C30.4396 251.535 30.5284 251.926 30.706 252.316C30.8658 252.707 31.1144 253.08 31.4517 253.435C32.5526 254.554 33.8666 255.406 35.3936 255.992C36.9029 256.578 38.492 256.871 40.1611 256.871C41.9367 256.871 43.6058 256.551 45.1683 255.912C46.7308 255.255 48.0981 254.358 49.27 253.222C50.4419 252.086 51.3652 250.754 52.0399 249.227C52.7146 247.682 53.052 246.022 53.052 244.246C53.0342 244.229 53.0254 244.211 53.0254 244.193H53.052C53.052 242.417 52.7146 240.757 52.0399 239.212C51.3652 237.65 50.4419 236.3 49.27 235.164C48.0981 234.01 46.7308 233.104 45.1683 232.447C43.6058 231.79 41.9367 231.462 40.1611 231.462C38.492 231.462 36.9029 231.746 35.3936 232.314C33.8666 232.865 32.5526 233.699 31.4517 234.818C31.1144 235.155 30.8569 235.528 30.6793 235.936C30.5018 236.327 30.413 236.727 30.413 237.135C30.3952 237.526 30.4663 237.907 30.6261 238.28C30.7859 238.635 31.0256 238.955 31.3452 239.239C31.7003 239.541 32.0377 239.754 32.3573 239.878C32.6769 240.003 32.9876 240.065 33.2895 240.065C33.8044 240.065 34.2838 239.94 34.7277 239.692C35.1539 239.426 35.5534 239.141 35.9263 238.84C36.672 238.271 37.4089 237.863 38.1369 237.614C38.8649 237.366 39.6284 237.242 40.4274 237.242C41.333 237.242 42.203 237.428 43.0376 237.801C43.8721 238.174 44.6001 238.68 45.2216 239.319C45.843 239.958 46.3402 240.695 46.7131 241.53C47.086 242.364 47.2724 243.234 47.2724 244.14L47.299 244.166Z" fill="white"/>
<path fill-rule="evenodd" clip-rule="evenodd" d="M46.9974 219.767C48.4778 218.286 50.878 218.286 52.3585 219.767L56.6473 224.056C59.312 226.72 63.6324 226.72 66.2972 224.056L70.0499 220.303C71.5303 218.822 73.9305 218.822 75.4109 220.303C76.8913 221.783 76.8913 224.183 75.4109 225.664L71.6582 229.417C66.0326 235.042 56.9118 235.042 51.2862 229.417L46.9974 225.128C45.517 223.647 45.517 221.247 46.9974 219.767Z" fill="white"/>
<path fill-rule="evenodd" clip-rule="evenodd" d="M75.9467 268.016C74.4663 269.497 72.066 269.497 70.5856 268.016L66.2968 263.728C63.6321 261.063 59.3117 261.063 56.6469 263.728L52.8942 267.48C51.4138 268.961 49.0136 268.961 47.5332 267.48C46.0528 266 46.0528 263.6 47.5332 262.119L51.2859 258.367C56.9115 252.741 66.0323 252.741 71.6578 258.367L75.9467 262.655C77.4271 264.136 77.4271 266.536 75.9467 268.016Z" fill="white"/>
<path fill-rule="evenodd" clip-rule="evenodd" d="M85.5965 258.365C87.0769 256.885 87.0769 254.485 85.5965 253.004L81.3077 248.716C78.643 246.051 78.643 241.73 81.3077 239.066L85.0604 235.313C86.5408 233.833 86.5408 231.432 85.0604 229.952C83.58 228.471 81.1798 228.471 79.6994 229.952L75.9467 233.705C70.3211 239.33 70.3211 248.451 75.9467 254.077L80.2355 258.365C81.7159 259.846 84.1161 259.846 85.5965 258.365Z" fill="white"/>
<rect width="20.4565" height="54.7943" rx="10.2283" transform="matrix(-1 0 0 1 383.01 216.061)" fill="white"/>
<rect width="20.4565" height="54.7943" rx="10.2283" transform="matrix(4.37114e-08 1 1 -4.37114e-08 345.384 233.229)" fill="white"/>
<path fill-rule="evenodd" clip-rule="evenodd" d="M285.755 217.457C283.707 217.457 282.047 219.117 282.047 221.165V227.098C282.047 230.784 279.059 233.773 275.373 233.773H270.181C268.133 233.773 266.473 235.433 266.473 237.481C266.473 239.529 268.133 241.189 270.181 241.189H275.373C283.155 241.189 289.463 234.88 289.463 227.098V221.165C289.463 219.117 287.803 217.457 285.755 217.457Z" fill="white"/>
<path fill-rule="evenodd" clip-rule="evenodd" d="M299.104 217.457C301.152 217.457 302.812 219.117 302.812 221.165V227.098C302.812 230.784 305.801 233.773 309.487 233.773H314.678C316.726 233.773 318.386 235.433 318.386 237.481C318.386 239.529 316.726 241.189 314.678 241.189H309.487C301.705 241.189 295.396 234.88 295.396 227.098V221.165C295.396 219.117 297.056 217.457 299.104 217.457Z" fill="white"/>
<path fill-rule="evenodd" clip-rule="evenodd" d="M285.755 270.854C283.707 270.854 282.047 269.193 282.047 267.145V261.213C282.047 257.526 279.059 254.538 275.373 254.538H270.181C268.133 254.538 266.473 252.878 266.473 250.83C266.473 248.782 268.133 247.122 270.181 247.122H275.373C283.155 247.122 289.463 253.43 289.463 261.213V267.145C289.463 269.193 287.803 270.854 285.755 270.854Z" fill="white"/>
<path fill-rule="evenodd" clip-rule="evenodd" d="M299.104 270.854C301.152 270.854 302.812 269.193 302.812 267.145V261.213C302.812 257.526 305.801 254.538 309.487 254.538H314.678C316.726 254.538 318.386 252.878 318.386 250.83C318.386 248.782 316.726 247.122 314.678 247.122H309.487C301.705 247.122 295.396 253.43 295.396 261.213V267.145C295.396 269.193 297.056 270.854 299.104 270.854Z" fill="white"/>
<path fill-rule="evenodd" clip-rule="evenodd" d="M122.933 217.457C120.885 217.457 119.225 219.117 119.225 221.165V227.098C119.225 230.784 116.236 233.773 112.55 233.773H107.359C105.311 233.773 103.651 235.433 103.651 237.481C103.651 239.529 105.311 241.189 107.359 241.189H112.55C120.332 241.189 126.641 234.88 126.641 227.098V221.165C126.641 219.117 124.981 217.457 122.933 217.457Z" fill="white" stroke="white" stroke-width="1.89921" stroke-linecap="round" stroke-linejoin="bevel"/>
<path fill-rule="evenodd" clip-rule="evenodd" d="M136.282 217.457C138.33 217.457 139.99 219.117 139.99 221.165V227.098C139.99 230.784 142.978 233.773 146.665 233.773H151.856C153.904 233.773 155.564 235.433 155.564 237.481C155.564 239.529 153.904 241.189 151.856 241.189H146.665C138.883 241.189 132.574 234.88 132.574 227.098V221.165C132.574 219.117 134.234 217.457 136.282 217.457Z" fill="white" stroke="white" stroke-width="1.89921" stroke-linecap="round" stroke-linejoin="bevel"/>
<path fill-rule="evenodd" clip-rule="evenodd" d="M122.933 270.854C120.885 270.854 119.225 269.193 119.225 267.145V261.213C119.225 257.526 116.236 254.538 112.55 254.538H107.359C105.311 254.538 103.651 252.878 103.651 250.83C103.651 248.782 105.311 247.122 107.359 247.122H112.55C120.332 247.122 126.641 253.43 126.641 261.213V267.145C126.641 269.193 124.981 270.854 122.933 270.854Z" fill="white" stroke="white" stroke-width="1.89921" stroke-linecap="round" stroke-linejoin="bevel"/>
<path fill-rule="evenodd" clip-rule="evenodd" d="M136.282 270.854C138.33 270.854 139.99 269.193 139.99 267.145V261.213C139.99 257.526 142.978 254.538 146.665 254.538H151.856C153.904 254.538 155.564 252.878 155.564 250.83C155.564 248.782 153.904 247.122 151.856 247.122H146.665C138.883 247.122 132.574 253.43 132.574 261.213V267.145C132.574 269.193 134.234 270.854 136.282 270.854Z" fill="white" stroke="white" stroke-width="1.89921" stroke-linecap="round" stroke-linejoin="bevel"/>
<path fill-rule="evenodd" clip-rule="evenodd" d="M223.723 220.556C222.275 219.108 219.927 219.108 218.479 220.556L214.284 224.751C211.677 227.357 207.451 227.357 204.844 224.751L201.173 221.08C199.725 219.632 197.378 219.632 195.929 221.08C194.481 222.528 194.481 224.876 195.929 226.324L199.6 229.995C205.103 235.498 214.025 235.498 219.528 229.995L223.723 225.8C225.171 224.352 225.171 222.004 223.723 220.556Z" fill="white"/>
<path fill-rule="evenodd" clip-rule="evenodd" d="M233.162 229.996C234.61 231.444 234.61 233.792 233.162 235.24L228.967 239.435C226.36 242.042 226.36 246.268 228.967 248.874L232.638 252.545C234.086 253.993 234.086 256.341 232.638 257.789C231.19 259.237 228.842 259.237 227.394 257.789L223.723 254.118C218.22 248.616 218.22 239.694 223.723 234.191L227.918 229.996C229.366 228.548 231.714 228.548 233.162 229.996Z" fill="white"/>
<path fill-rule="evenodd" clip-rule="evenodd" d="M185.965 258.312C184.517 256.864 184.517 254.516 185.965 253.068L190.16 248.872C192.767 246.266 192.767 242.04 190.16 239.433L186.49 235.762C185.041 234.314 185.041 231.966 186.49 230.518C187.938 229.07 190.285 229.07 191.734 230.518L195.404 234.189C200.907 239.692 200.907 248.614 195.404 254.116L191.209 258.312C189.761 259.76 187.413 259.76 185.965 258.312Z" fill="white"/>
<path fill-rule="evenodd" clip-rule="evenodd" d="M195.405 267.752C196.853 269.2 199.201 269.2 200.649 267.752L204.844 263.557C207.45 260.95 211.677 260.95 214.283 263.557L217.954 267.227C219.402 268.676 221.75 268.676 223.198 267.227C224.646 265.779 224.646 263.432 223.198 261.983L219.527 258.313C214.024 252.81 205.103 252.81 199.6 258.313L195.405 262.508C193.957 263.956 193.957 266.304 195.405 267.752Z" fill="white"/>
<path d="M47.2993 367.613C47.2993 368.447 47.1306 369.273 46.7932 370.09C46.4381 370.906 45.9676 371.643 45.3816 372.3C44.7779 372.939 44.0765 373.463 43.2775 373.872C42.4785 374.28 41.6173 374.493 40.694 374.511C39.7352 374.511 38.8918 374.395 38.1638 374.165C37.418 373.916 36.6723 373.481 35.9265 372.86C35.5714 372.558 35.1808 372.283 34.7546 372.034C34.3107 371.768 33.8313 371.634 33.3164 371.634C33.0145 371.634 32.6949 371.705 32.3575 371.847C32.0202 371.972 31.6739 372.185 31.3188 372.487C31.017 372.753 30.795 373.073 30.653 373.446C30.4932 373.801 30.4221 374.182 30.4399 374.591C30.4399 374.981 30.5287 375.372 30.7062 375.763C30.866 376.153 31.1146 376.526 31.452 376.881C32.5529 378 33.8668 378.852 35.3938 379.438C36.9031 380.024 38.4923 380.317 40.1613 380.317C41.9369 380.317 43.606 379.998 45.1685 379.358C46.7311 378.701 48.0983 377.805 49.2702 376.668C50.4421 375.532 51.3654 374.2 52.0401 372.673C52.7149 371.128 53.0522 369.468 53.0522 367.693C53.0345 367.675 53.0256 367.657 53.0256 367.639H53.0522C53.0522 365.864 52.7149 364.203 52.0401 362.659C51.3654 361.096 50.4421 359.747 49.2702 358.61C48.0983 357.456 46.7311 356.551 45.1685 355.894C43.606 355.237 41.9369 354.908 40.1613 354.908C38.4923 354.908 36.9031 355.192 35.3938 355.76C33.8668 356.311 32.5529 357.145 31.452 358.264C31.1146 358.601 30.8572 358.974 30.6796 359.383C30.502 359.773 30.4132 360.173 30.4132 360.581C30.3955 360.972 30.4665 361.354 30.6263 361.727C30.7861 362.082 31.0258 362.401 31.3454 362.685C31.7006 362.987 32.0379 363.2 32.3575 363.325C32.6771 363.449 32.9879 363.511 33.2897 363.511C33.8047 363.511 34.2841 363.387 34.728 363.138C35.1541 362.872 35.5536 362.588 35.9265 362.286C36.6723 361.718 37.4091 361.309 38.1371 361.061C38.8651 360.812 39.6287 360.688 40.4277 360.688C41.3332 360.688 42.2033 360.874 43.0378 361.247C43.8724 361.62 44.6004 362.126 45.2218 362.765C45.8433 363.404 46.3404 364.141 46.7133 364.976C47.0862 365.81 47.2726 366.68 47.2726 367.586L47.2993 367.613Z" fill="white"/>
<path fill-rule="evenodd" clip-rule="evenodd" d="M46.9977 343.214C48.4781 341.734 50.8783 341.734 52.3587 343.214L56.6475 347.503C59.3123 350.168 63.6327 350.168 66.2974 347.503L70.0501 343.75C71.5305 342.27 73.9308 342.27 75.4112 343.75C76.8916 345.231 76.8916 347.631 75.4112 349.111L71.6584 352.864C66.0329 358.489 56.912 358.489 51.2865 352.864L46.9977 348.575C45.5172 347.095 45.5172 344.694 46.9977 343.214Z" fill="white"/>
<path fill-rule="evenodd" clip-rule="evenodd" d="M75.9474 391.464C74.467 392.944 72.0668 392.944 70.5864 391.464L66.2975 387.175C63.6328 384.51 59.3124 384.51 56.6477 387.175L52.8949 390.928C51.4145 392.408 49.0143 392.408 47.5339 390.928C46.0535 389.447 46.0535 387.047 47.5339 385.567L51.2866 381.814C56.9122 376.188 66.033 376.188 71.6586 381.814L75.9474 386.103C77.4278 387.583 77.4278 389.983 75.9474 391.464Z" fill="white"/>
<path fill-rule="evenodd" clip-rule="evenodd" d="M85.597 381.813C87.0774 380.332 87.0774 377.932 85.597 376.452L81.3082 372.163C78.6435 369.498 78.6435 365.178 81.3082 362.513L85.0609 358.76C86.5413 357.28 86.5413 354.88 85.0609 353.399C83.5805 351.919 81.1803 351.919 79.6999 353.399L75.9472 357.152C70.3216 362.777 70.3216 371.898 75.9472 377.524L80.236 381.813C81.7164 383.293 84.1166 383.293 85.597 381.813Z" fill="white"/>
<rect width="20.4565" height="54.7943" rx="10.2283" transform="matrix(-1 0 0 1 383.01 339.508)" fill="white"/>
<rect width="20.4565" height="54.7943" rx="10.2283" transform="matrix(4.37114e-08 1 1 -4.37114e-08 345.384 356.677)" fill="white"/>
<path fill-rule="evenodd" clip-rule="evenodd" d="M285.756 340.905C283.708 340.905 282.047 342.565 282.047 344.613V350.546C282.047 354.232 279.059 357.221 275.373 357.221H270.182C268.134 357.221 266.474 358.881 266.474 360.929C266.474 362.977 268.134 364.637 270.182 364.637H275.373C283.155 364.637 289.464 358.328 289.464 350.546V344.613C289.464 342.565 287.803 340.905 285.756 340.905Z" fill="white"/>
<path fill-rule="evenodd" clip-rule="evenodd" d="M299.105 340.905C301.152 340.905 302.813 342.565 302.813 344.613V350.546C302.813 354.232 305.801 357.221 309.487 357.221H314.678C316.726 357.221 318.387 358.881 318.387 360.929C318.387 362.977 316.726 364.637 314.678 364.637H309.487C301.705 364.637 295.396 358.328 295.396 350.546V344.613C295.396 342.565 297.057 340.905 299.105 340.905Z" fill="white"/>
<path fill-rule="evenodd" clip-rule="evenodd" d="M285.756 394.302C283.708 394.302 282.047 392.642 282.047 390.594V384.661C282.047 380.975 279.059 377.986 275.373 377.986H270.182C268.134 377.986 266.474 376.326 266.474 374.278C266.474 372.23 268.134 370.57 270.182 370.57H275.373C283.155 370.57 289.464 376.879 289.464 384.661V390.594C289.464 392.642 287.803 394.302 285.756 394.302Z" fill="white"/>
<path fill-rule="evenodd" clip-rule="evenodd" d="M299.105 394.302C301.152 394.302 302.813 392.642 302.813 390.594V384.661C302.813 380.975 305.801 377.986 309.487 377.986H314.678C316.726 377.986 318.387 376.326 318.387 374.278C318.387 372.23 316.726 370.57 314.678 370.57H309.487C301.705 370.57 295.396 376.879 295.396 384.661V390.594C295.396 392.642 297.057 394.302 299.105 394.302Z" fill="white"/>
<path fill-rule="evenodd" clip-rule="evenodd" d="M122.933 340.905C120.885 340.905 119.225 342.565 119.225 344.613V350.546C119.225 354.232 116.237 357.221 112.55 357.221H107.359C105.311 357.221 103.651 358.881 103.651 360.929C103.651 362.977 105.311 364.637 107.359 364.637H112.55C120.333 364.637 126.641 358.328 126.641 350.546V344.613C126.641 342.565 124.981 340.905 122.933 340.905Z" fill="white" stroke="white" stroke-width="1.89921" stroke-linecap="round" stroke-linejoin="bevel"/>
<path fill-rule="evenodd" clip-rule="evenodd" d="M136.282 340.905C138.33 340.905 139.99 342.565 139.99 344.613V350.546C139.99 354.232 142.978 357.221 146.665 357.221H151.856C153.904 357.221 155.564 358.881 155.564 360.929C155.564 362.977 153.904 364.637 151.856 364.637H146.665C138.883 364.637 132.574 358.328 132.574 350.546V344.613C132.574 342.565 134.234 340.905 136.282 340.905Z" fill="white" stroke="white" stroke-width="1.89921" stroke-linecap="round" stroke-linejoin="bevel"/>
<path fill-rule="evenodd" clip-rule="evenodd" d="M122.933 394.302C120.885 394.302 119.225 392.642 119.225 390.594V384.661C119.225 380.975 116.237 377.986 112.55 377.986H107.359C105.311 377.986 103.651 376.326 103.651 374.278C103.651 372.23 105.311 370.57 107.359 370.57H112.55C120.333 370.57 126.641 376.879 126.641 384.661V390.594C126.641 392.642 124.981 394.302 122.933 394.302Z" fill="white" stroke="white" stroke-width="1.89921" stroke-linecap="round" stroke-linejoin="bevel"/>
<path fill-rule="evenodd" clip-rule="evenodd" d="M136.282 394.302C138.33 394.302 139.99 392.642 139.99 390.594V384.661C139.99 380.975 142.978 377.986 146.665 377.986H151.856C153.904 377.986 155.564 376.326 155.564 374.278C155.564 372.23 153.904 370.57 151.856 370.57H146.665C138.883 370.57 132.574 376.879 132.574 384.661V390.594C132.574 392.642 134.234 394.302 136.282 394.302Z" fill="white" stroke="white" stroke-width="1.89921" stroke-linecap="round" stroke-linejoin="bevel"/>
<path fill-rule="evenodd" clip-rule="evenodd" d="M223.723 344.004C222.275 342.556 219.927 342.556 218.479 344.004L214.284 348.199C211.677 350.806 207.451 350.806 204.845 348.199L201.174 344.528C199.726 343.08 197.378 343.08 195.93 344.528C194.482 345.976 194.482 348.324 195.93 349.772L199.601 353.443C205.103 358.946 214.025 358.946 219.528 353.443L223.723 349.248C225.171 347.8 225.171 345.452 223.723 344.004Z" fill="white"/>
<path fill-rule="evenodd" clip-rule="evenodd" d="M233.162 353.444C234.61 354.892 234.61 357.24 233.162 358.688L228.967 362.883C226.36 365.49 226.36 369.716 228.967 372.323L232.638 375.993C234.086 377.442 234.086 379.789 232.638 381.237C231.19 382.686 228.842 382.686 227.394 381.237L223.723 377.567C218.22 372.064 218.22 363.142 223.723 357.639L227.918 353.444C229.366 351.996 231.714 351.996 233.162 353.444Z" fill="white"/>
<path fill-rule="evenodd" clip-rule="evenodd" d="M185.965 381.762C184.517 380.314 184.517 377.966 185.965 376.518L190.161 372.323C192.767 369.716 192.767 365.49 190.161 362.883L186.49 359.213C185.042 357.764 185.042 355.417 186.49 353.969C187.938 352.52 190.286 352.52 191.734 353.969L195.405 357.639C200.907 363.142 200.907 372.064 195.405 377.567L191.209 381.762C189.761 383.21 187.413 383.21 185.965 381.762Z" fill="white"/>
<path fill-rule="evenodd" clip-rule="evenodd" d="M195.405 391.2C196.853 392.648 199.201 392.648 200.649 391.2L204.844 387.005C207.451 384.398 211.677 384.398 214.283 387.005L217.954 390.676C219.402 392.124 221.75 392.124 223.198 390.676C224.646 389.228 224.646 386.88 223.198 385.432L219.527 381.761C214.025 376.258 205.103 376.258 199.6 381.761L195.405 385.956C193.957 387.404 193.957 389.752 195.405 391.2Z" fill="white"/>
<path d="M376.288 47.598C376.288 48.4325 376.457 49.2582 376.794 50.075C377.15 50.8918 377.62 51.6286 378.206 52.2856C378.81 52.9248 379.511 53.4486 380.31 53.857C381.109 54.2654 381.97 54.4785 382.894 54.4962C383.852 54.4962 384.696 54.3808 385.424 54.15C386.17 53.9014 386.915 53.4664 387.661 52.8449C388.016 52.5431 388.407 52.2679 388.833 52.0193C389.277 51.7529 389.756 51.6198 390.271 51.6198C390.573 51.6198 390.893 51.6908 391.23 51.8328C391.567 51.9571 391.914 52.1702 392.269 52.4721C392.571 52.7384 392.793 53.058 392.935 53.4309C393.094 53.786 393.166 54.1678 393.148 54.5761C393.148 54.9668 393.059 55.3574 392.881 55.748C392.722 56.1387 392.473 56.5116 392.136 56.8667C391.035 57.9853 389.721 58.8376 388.194 59.4235C386.685 60.0095 385.095 60.3025 383.426 60.3025C381.651 60.3025 379.982 59.9829 378.419 59.3436C376.857 58.6867 375.489 57.79 374.317 56.6536C373.146 55.5172 372.222 54.1855 371.547 52.6585C370.873 51.1137 370.535 49.4535 370.535 47.6779C370.553 47.6602 370.562 47.6424 370.562 47.6246H370.535C370.535 45.849 370.873 44.1889 371.547 42.6441C372.222 41.0815 373.146 39.7321 374.317 38.5957C375.489 37.4415 376.857 36.536 378.419 35.879C379.982 35.222 381.651 34.8936 383.426 34.8936C385.095 34.8936 386.685 35.1777 388.194 35.7458C389.721 36.2963 391.035 37.1308 392.136 38.2494C392.473 38.5868 392.73 38.9597 392.908 39.3681C393.086 39.7587 393.174 40.1582 393.174 40.5666C393.192 40.9572 393.121 41.339 392.961 41.7119C392.802 42.067 392.562 42.3866 392.242 42.6707C391.887 42.9726 391.55 43.1856 391.23 43.3099C390.91 43.4342 390.6 43.4964 390.298 43.4964C389.783 43.4964 389.304 43.3721 388.86 43.1235C388.434 42.8571 388.034 42.573 387.661 42.2712C386.915 41.703 386.179 41.2946 385.451 41.046C384.723 40.7974 383.959 40.6732 383.16 40.6732C382.254 40.6732 381.384 40.8596 380.55 41.2325C379.715 41.6053 378.987 42.1114 378.366 42.7506C377.744 43.3898 377.247 44.1267 376.874 44.9612C376.501 45.7958 376.315 46.6658 376.315 47.5714L376.288 47.598Z" fill="white"/>
<path fill-rule="evenodd" clip-rule="evenodd" d="M370.419 29.0767C368.939 27.5963 367.095 27.5374 365.671 28.4462L366.146 28.0122C363.481 30.6769 359.958 30.1506 357.293 27.4859L353.54 23.7332C352.06 22.2528 349.659 22.2528 348.179 23.7332C346.699 25.2136 346.699 27.6138 348.179 29.0942L351.932 32.8469C357.557 38.4725 364.246 39.4075 370.419 34.4374C371.899 32.957 371.9 30.5571 370.419 29.0767Z" fill="white"/>
<path fill-rule="evenodd" clip-rule="evenodd" d="M347.643 71.4452C349.123 72.9256 351.523 72.9256 353.004 71.4452L357.293 67.1563C359.957 64.4916 364.278 64.4916 366.942 67.1563L370.695 70.9091C372.176 72.3895 374.576 72.3895 376.056 70.9091C377.537 69.4287 377.537 67.0284 376.056 65.548L372.303 61.7953C366.678 56.1698 357.557 56.1698 351.932 61.7953L347.643 66.0841C346.162 67.5645 346.162 69.9648 347.643 71.4452Z" fill="white"/>
<path fill-rule="evenodd" clip-rule="evenodd" d="M337.993 61.7951C336.513 60.3147 336.513 57.9144 337.993 56.434L342.282 52.1452C344.947 49.4805 344.947 45.1601 342.282 42.4953L338.529 38.7426C337.049 37.2622 337.049 34.862 338.529 33.3816C340.01 31.9012 342.41 31.9012 343.89 33.3816L347.643 37.1343C353.269 42.7599 353.269 51.8807 347.643 57.5062L343.354 61.7951C341.874 63.2755 339.474 63.2755 337.993 61.7951Z" fill="white"/>
<rect x="198.213" y="19.4902" width="20.4565" height="54.7943" rx="10.2283" fill="white"/>
<rect x="235.838" y="36.6592" width="20.4565" height="54.7943" rx="10.2283" transform="rotate(90 235.838 36.6592)" fill="white"/>
<path fill-rule="evenodd" clip-rule="evenodd" d="M137.832 20.8887C139.88 20.8887 141.54 22.5488 141.54 24.5967V30.5297C141.54 34.2159 144.529 37.2042 148.215 37.2042H153.406C155.454 37.2042 157.114 38.8643 157.114 40.9122C157.114 42.9602 155.454 44.6203 153.406 44.6203H148.215C140.433 44.6203 134.124 38.3117 134.124 30.5297V24.5967C134.124 22.5488 135.784 20.8887 137.832 20.8887Z" fill="white"/>
<path fill-rule="evenodd" clip-rule="evenodd" d="M124.483 20.8887C122.435 20.8887 120.775 22.5488 120.775 24.5967V30.5297C120.775 34.2159 117.787 37.2042 114.101 37.2042H108.909C106.862 37.2042 105.201 38.8643 105.201 40.9122C105.201 42.9602 106.862 44.6203 108.909 44.6203H114.101C121.883 44.6203 128.191 38.3117 128.191 30.5297V24.5967C128.191 22.5488 126.531 20.8887 124.483 20.8887Z" fill="white"/>
<path fill-rule="evenodd" clip-rule="evenodd" d="M137.832 74.2852C139.88 74.2852 141.54 72.625 141.54 70.5771V64.6442C141.54 60.9579 144.529 57.9697 148.215 57.9697H153.406C155.454 57.9697 157.114 56.3095 157.114 54.2616C157.114 52.2137 155.454 50.5535 153.406 50.5535H148.215C140.433 50.5535 134.124 56.8621 134.124 64.6442V70.5771C134.124 72.625 135.784 74.2852 137.832 74.2852Z" fill="white"/>
<path fill-rule="evenodd" clip-rule="evenodd" d="M124.483 74.2852C122.435 74.2852 120.775 72.625 120.775 70.5771V64.6442C120.775 60.9579 117.787 57.9697 114.101 57.9697H108.909C106.862 57.9697 105.201 56.3095 105.201 54.2616C105.201 52.2137 106.862 50.5535 108.909 50.5535H114.101C121.883 50.5535 128.191 56.8621 128.191 64.6442V70.5771C128.191 72.625 126.531 74.2852 124.483 74.2852Z" fill="white"/>
<path fill-rule="evenodd" clip-rule="evenodd" d="M70.8507 20.8887C72.8986 20.8887 74.5587 22.5488 74.5587 24.5967V30.5297C74.5587 34.2159 77.547 37.2042 81.2333 37.2042H86.4246C88.4725 37.2042 90.1326 38.8643 90.1326 40.9122C90.1326 42.9602 88.4725 44.6203 86.4246 44.6203H81.2333C73.4512 44.6203 67.1426 38.3117 67.1426 30.5297V24.5967C67.1426 22.5488 68.8027 20.8887 70.8507 20.8887Z" fill="white" stroke="white" stroke-width="1.89921" stroke-linecap="round" stroke-linejoin="bevel"/>
<path fill-rule="evenodd" clip-rule="evenodd" d="M57.5016 20.8887C55.4537 20.8887 53.7936 22.5488 53.7936 24.5967V30.5297C53.7936 34.2159 50.8053 37.2042 47.119 37.2042H41.9277C39.8798 37.2042 38.2197 38.8643 38.2197 40.9122C38.2197 42.9602 39.8798 44.6203 41.9277 44.6203H47.119C54.9011 44.6203 61.2097 38.3117 61.2097 30.5297V24.5967C61.2097 22.5488 59.5496 20.8887 57.5016 20.8887Z" fill="white" stroke="white" stroke-width="1.89921" stroke-linecap="round" stroke-linejoin="bevel"/>
<path fill-rule="evenodd" clip-rule="evenodd" d="M70.8507 74.2852C72.8986 74.2852 74.5587 72.625 74.5587 70.5771V64.6442C74.5587 60.9579 77.547 57.9697 81.2333 57.9697H86.4246C88.4725 57.9697 90.1326 56.3095 90.1326 54.2616C90.1326 52.2137 88.4725 50.5535 86.4246 50.5535H81.2333C73.4512 50.5535 67.1426 56.8621 67.1426 64.6442V70.5771C67.1426 72.625 68.8027 74.2852 70.8507 74.2852Z" fill="white" stroke="white" stroke-width="1.89921" stroke-linecap="round" stroke-linejoin="bevel"/>
<path fill-rule="evenodd" clip-rule="evenodd" d="M57.5016 74.2852C55.4537 74.2852 53.7936 72.625 53.7936 70.5771V64.6442C53.7936 60.9579 50.8053 57.9697 47.119 57.9697H41.9277C39.8798 57.9697 38.2197 56.3095 38.2197 54.2616C38.2197 52.2137 39.8798 50.5535 41.9277 50.5535H47.119C54.9011 50.5535 61.2097 56.8621 61.2097 64.6442V70.5771C61.2097 72.625 59.5496 74.2852 57.5016 74.2852Z" fill="white" stroke="white" stroke-width="1.89921" stroke-linecap="round" stroke-linejoin="bevel"/>
<path fill-rule="evenodd" clip-rule="evenodd" d="M268.237 23.9874C269.685 22.5393 272.032 22.5393 273.481 23.9874L277.676 28.1826C280.282 30.7891 284.508 30.7891 287.115 28.1826L290.786 24.5118C292.234 23.0637 294.582 23.0637 296.03 24.5118C297.478 25.9599 297.478 28.3077 296.03 29.7558L292.359 33.4266C286.856 38.9293 277.934 38.9293 272.432 33.4266L268.237 29.2314C266.788 27.7833 266.788 25.4355 268.237 23.9874Z" fill="white"/>
<path fill-rule="evenodd" clip-rule="evenodd" d="M258.797 33.4277C257.349 34.8758 257.349 37.2236 258.797 38.6717L262.993 42.8669C265.599 45.4734 265.599 49.6995 262.993 52.3061L259.322 55.9769C257.874 57.425 257.874 59.7728 259.322 61.2209C260.77 62.669 263.118 62.669 264.566 61.2209L268.237 57.5501C273.739 52.0473 273.739 43.1256 268.237 37.6229L264.041 33.4277C262.593 31.9796 260.246 31.9796 258.797 33.4277Z" fill="white"/>
<path fill-rule="evenodd" clip-rule="evenodd" d="M305.994 61.7452C307.442 60.2971 307.442 57.9493 305.994 56.5012L301.799 52.306C299.193 49.6994 299.193 45.4733 301.799 42.8668L305.47 39.196C306.918 37.7479 306.918 35.4001 305.47 33.952C304.022 32.5039 301.674 32.5039 300.226 33.952L296.555 37.6228C291.052 43.1255 291.052 52.0472 296.555 57.55L300.75 61.7452C302.198 63.1933 304.546 63.1933 305.994 61.7452Z" fill="white"/>
<path fill-rule="evenodd" clip-rule="evenodd" d="M296.555 71.1835C295.107 72.6316 292.759 72.6316 291.311 71.1835L287.116 66.9883C284.509 64.3818 280.283 64.3818 277.676 66.9883L274.006 70.6591C272.557 72.1072 270.21 72.1072 268.762 70.6591C267.313 69.211 267.313 66.8632 268.762 65.4151L272.432 61.7443C277.935 56.2416 286.857 56.2416 292.36 61.7443L296.555 65.9395C298.003 67.3876 298.003 69.7354 296.555 71.1835Z" fill="white"/>
<path d="M383.885 178.642C383.885 179.476 384.054 180.302 384.391 181.119C384.746 181.936 385.217 182.673 385.803 183.33C386.406 183.969 387.108 184.493 387.907 184.901C388.706 185.309 389.567 185.522 390.49 185.54C391.449 185.54 392.293 185.425 393.021 185.194C393.766 184.945 394.512 184.51 395.258 183.889C395.613 183.587 396.004 183.312 396.43 183.063C396.874 182.797 397.353 182.664 397.868 182.664C398.17 182.664 398.489 182.735 398.827 182.877C399.164 183.001 399.51 183.214 399.866 183.516C400.167 183.782 400.389 184.102 400.531 184.475C400.691 184.83 400.762 185.212 400.744 185.62C400.744 186.011 400.656 186.401 400.478 186.792C400.318 187.183 400.07 187.555 399.732 187.911C398.631 189.029 397.318 189.882 395.79 190.467C394.281 191.053 392.692 191.346 391.023 191.346C389.247 191.346 387.578 191.027 386.016 190.388C384.453 189.731 383.086 188.834 381.914 187.698C380.742 186.561 379.819 185.229 379.144 183.702C378.469 182.158 378.132 180.497 378.132 178.722C378.15 178.704 378.159 178.686 378.159 178.669H378.132C378.132 176.893 378.469 175.233 379.144 173.688C379.819 172.125 380.742 170.776 381.914 169.64C383.086 168.485 384.453 167.58 386.016 166.923C387.578 166.266 389.247 165.938 391.023 165.938C392.692 165.938 394.281 166.222 395.79 166.79C397.318 167.34 398.631 168.175 399.732 169.293C400.07 169.631 400.327 170.004 400.505 170.412C400.682 170.803 400.771 171.202 400.771 171.611C400.789 172.001 400.718 172.383 400.558 172.756C400.398 173.111 400.158 173.431 399.839 173.715C399.484 174.017 399.146 174.23 398.827 174.354C398.507 174.478 398.196 174.54 397.895 174.54C397.38 174.54 396.9 174.416 396.456 174.167C396.03 173.901 395.631 173.617 395.258 173.315C394.512 172.747 393.775 172.339 393.047 172.09C392.319 171.841 391.556 171.717 390.757 171.717C389.851 171.717 388.981 171.904 388.147 172.276C387.312 172.649 386.584 173.155 385.963 173.795C385.341 174.434 384.844 175.171 384.471 176.005C384.098 176.84 383.912 177.71 383.912 178.615L383.885 178.642Z" fill="white"/>
<path fill-rule="evenodd" clip-rule="evenodd" d="M384.186 154.243C382.706 152.763 380.306 152.763 378.825 154.243L374.536 158.532C371.872 161.197 367.551 161.197 364.886 158.532L361.134 154.779C359.653 153.299 357.253 153.299 355.773 154.779C354.292 156.26 354.292 158.66 355.773 160.14L359.525 163.893C365.151 169.519 374.272 169.519 379.897 163.893L384.186 159.604C385.667 158.124 385.667 155.724 384.186 154.243Z" fill="white"/>
<path fill-rule="evenodd" clip-rule="evenodd" d="M355.236 202.493C356.717 203.973 359.117 203.973 360.597 202.493L364.886 198.204C367.551 195.539 371.871 195.539 374.536 198.204L378.289 201.957C379.769 203.437 382.17 203.437 383.65 201.957C385.13 200.477 385.13 198.076 383.65 196.596L379.897 192.843C374.272 187.218 365.151 187.218 359.525 192.843L355.236 197.132C353.756 198.612 353.756 201.013 355.236 202.493Z" fill="white"/>
<path fill-rule="evenodd" clip-rule="evenodd" d="M345.587 192.842C344.106 191.362 344.106 188.961 345.587 187.481L349.876 183.192C352.54 180.527 352.54 176.207 349.876 173.542L346.123 169.789C344.643 168.309 344.643 165.909 346.123 164.428C347.603 162.948 350.004 162.948 351.484 164.428L355.237 168.181C360.862 173.807 360.862 182.928 355.237 188.553L350.948 192.842C349.467 194.322 347.067 194.322 345.587 192.842Z" fill="white"/>
<rect x="48.1743" y="150.536" width="20.4565" height="54.7943" rx="10.2283" fill="white"/>
<rect x="85.7998" y="167.705" width="20.4565" height="54.7943" rx="10.2283" transform="rotate(90 85.7998 167.705)" fill="white"/>
<path fill-rule="evenodd" clip-rule="evenodd" d="M145.429 151.934C147.477 151.934 149.137 153.594 149.137 155.642V161.575C149.137 165.261 152.125 168.249 155.811 168.249H161.003C163.051 168.249 164.711 169.909 164.711 171.957C164.711 174.005 163.051 175.665 161.003 175.665H155.811C148.029 175.665 141.721 169.357 141.721 161.575V155.642C141.721 153.594 143.381 151.934 145.429 151.934Z" fill="white"/>
<path fill-rule="evenodd" clip-rule="evenodd" d="M132.08 151.934C130.032 151.934 128.372 153.594 128.372 155.642V161.575C128.372 165.261 125.383 168.249 121.697 168.249H116.506C114.458 168.249 112.798 169.909 112.798 171.957C112.798 174.005 114.458 175.665 116.506 175.665H121.697C129.479 175.665 135.788 169.357 135.788 161.575V155.642C135.788 153.594 134.128 151.934 132.08 151.934Z" fill="white"/>
<path fill-rule="evenodd" clip-rule="evenodd" d="M145.429 205.33C147.477 205.33 149.137 203.67 149.137 201.622V195.689C149.137 192.003 152.125 189.015 155.811 189.015H161.003C163.051 189.015 164.711 187.354 164.711 185.307C164.711 183.259 163.051 181.598 161.003 181.598H155.811C148.029 181.598 141.721 187.907 141.721 195.689V201.622C141.721 203.67 143.381 205.33 145.429 205.33Z" fill="white"/>
<path fill-rule="evenodd" clip-rule="evenodd" d="M132.08 205.33C130.032 205.33 128.372 203.67 128.372 201.622V195.689C128.372 192.003 125.383 189.015 121.697 189.015H116.506C114.458 189.015 112.798 187.354 112.798 185.307C112.798 183.259 114.458 181.598 116.506 181.598H121.697C129.479 181.598 135.788 187.907 135.788 195.689V201.622C135.788 203.67 134.128 205.33 132.08 205.33Z" fill="white"/>
<path fill-rule="evenodd" clip-rule="evenodd" d="M222.787 151.934C224.835 151.934 226.495 153.594 226.495 155.642V161.575C226.495 165.261 229.483 168.249 233.17 168.249H238.361C240.409 168.249 242.069 169.909 242.069 171.957C242.069 174.005 240.409 175.665 238.361 175.665H233.17C225.387 175.665 219.079 169.357 219.079 161.575V155.642C219.079 153.594 220.739 151.934 222.787 151.934Z" fill="white" stroke="white" stroke-width="1.89921" stroke-linecap="round" stroke-linejoin="bevel"/>
<path fill-rule="evenodd" clip-rule="evenodd" d="M209.438 151.934C207.39 151.934 205.73 153.594 205.73 155.642V161.575C205.73 165.261 202.742 168.249 199.055 168.249H193.864C191.816 168.249 190.156 169.909 190.156 171.957C190.156 174.005 191.816 175.665 193.864 175.665H199.055C206.837 175.665 213.146 169.357 213.146 161.575V155.642C213.146 153.594 211.486 151.934 209.438 151.934Z" fill="white" stroke="white" stroke-width="1.89921" stroke-linecap="round" stroke-linejoin="bevel"/>
<path fill-rule="evenodd" clip-rule="evenodd" d="M222.787 205.33C224.835 205.33 226.495 203.67 226.495 201.622V195.689C226.495 192.003 229.483 189.015 233.17 189.015H238.361C240.409 189.015 242.069 187.354 242.069 185.307C242.069 183.259 240.409 181.598 238.361 181.598H233.17C225.387 181.598 219.079 187.907 219.079 195.689V201.622C219.079 203.67 220.739 205.33 222.787 205.33Z" fill="white" stroke="white" stroke-width="1.89921" stroke-linecap="round" stroke-linejoin="bevel"/>
<path fill-rule="evenodd" clip-rule="evenodd" d="M209.438 205.33C207.39 205.33 205.73 203.67 205.73 201.622V195.689C205.73 192.003 202.742 189.015 199.055 189.015H193.864C191.816 189.015 190.156 187.354 190.156 185.307C190.156 183.259 191.816 181.598 193.864 181.598H199.055C206.837 181.598 213.146 187.907 213.146 195.689V201.622C213.146 203.67 211.486 205.33 209.438 205.33Z" fill="white" stroke="white" stroke-width="1.89921" stroke-linecap="round" stroke-linejoin="bevel"/>
<path fill-rule="evenodd" clip-rule="evenodd" d="M275.832 155.032C277.281 153.584 279.628 153.584 281.076 155.032L285.272 159.227C287.878 161.834 292.104 161.834 294.711 159.227L298.382 155.557C299.83 154.109 302.178 154.109 303.626 155.557C305.074 157.005 305.074 159.353 303.626 160.801L299.955 164.472C294.452 169.974 285.53 169.974 280.028 164.471L275.832 160.276C274.384 158.828 274.384 156.48 275.832 155.032Z" fill="white"/>
<path fill-rule="evenodd" clip-rule="evenodd" d="M266.393 164.473C264.945 165.921 264.945 168.268 266.393 169.717L270.589 173.912C273.195 176.518 273.195 180.744 270.589 183.351L266.918 187.022C265.47 188.47 265.47 190.818 266.918 192.266C268.366 193.714 270.714 193.714 272.162 192.266L275.833 188.595C281.335 183.092 281.335 174.171 275.833 168.668L271.637 164.473C270.189 163.024 267.841 163.024 266.393 164.473Z" fill="white"/>
<path fill-rule="evenodd" clip-rule="evenodd" d="M313.59 192.79C315.038 191.342 315.038 188.994 313.59 187.546L309.395 183.351C306.788 180.744 306.788 176.518 309.395 173.912L313.066 170.241C314.514 168.793 314.514 166.445 313.066 164.997C311.618 163.549 309.27 163.549 307.822 164.997L304.151 168.668C298.648 174.17 298.648 183.092 304.151 188.595L308.346 192.79C309.794 194.238 312.142 194.238 313.59 192.79Z" fill="white"/>
<path fill-rule="evenodd" clip-rule="evenodd" d="M304.151 202.228C302.703 203.677 300.355 203.677 298.907 202.228L294.711 198.033C292.105 195.427 287.879 195.427 285.272 198.033L281.601 201.704C280.153 203.152 277.806 203.152 276.357 201.704C274.909 200.256 274.909 197.908 276.357 196.46L280.028 192.789C285.531 187.286 294.453 187.286 299.955 192.789L304.151 196.984C305.599 198.433 305.599 200.78 304.151 202.228Z" fill="white"/>
<path d="M383.886 308.741C383.886 309.575 384.054 310.401 384.392 311.218C384.747 312.034 385.217 312.771 385.803 313.428C386.407 314.067 387.109 314.591 387.908 315C388.707 315.408 389.568 315.621 390.491 315.639C391.45 315.639 392.293 315.523 393.021 315.293C393.767 315.044 394.513 314.609 395.259 313.988C395.614 313.686 396.004 313.41 396.43 313.162C396.874 312.896 397.354 312.762 397.869 312.762C398.171 312.762 398.49 312.833 398.828 312.975C399.165 313.1 399.511 313.313 399.866 313.615C400.168 313.881 400.39 314.201 400.532 314.573C400.692 314.929 400.763 315.31 400.745 315.719C400.745 316.109 400.656 316.5 400.479 316.891C400.319 317.281 400.07 317.654 399.733 318.009C398.632 319.128 397.318 319.98 395.791 320.566C394.282 321.152 392.693 321.445 391.024 321.445C389.248 321.445 387.579 321.125 386.017 320.486C384.454 319.829 383.087 318.933 381.915 317.796C380.743 316.66 379.82 315.328 379.145 313.801C378.47 312.256 378.133 310.596 378.133 308.82C378.151 308.803 378.159 308.785 378.159 308.767H378.133C378.133 306.992 378.47 305.331 379.145 303.787C379.82 302.224 380.743 300.875 381.915 299.738C383.087 298.584 384.454 297.679 386.017 297.022C387.579 296.365 389.248 296.036 391.024 296.036C392.693 296.036 394.282 296.32 395.791 296.888C397.318 297.439 398.632 298.273 399.733 299.392C400.07 299.729 400.328 300.102 400.505 300.511C400.683 300.901 400.772 301.301 400.772 301.709C400.79 302.1 400.719 302.482 400.559 302.854C400.399 303.21 400.159 303.529 399.84 303.813C399.484 304.115 399.147 304.328 398.828 304.453C398.508 304.577 398.197 304.639 397.895 304.639C397.38 304.639 396.901 304.515 396.457 304.266C396.031 304 395.631 303.716 395.259 303.414C394.513 302.846 393.776 302.437 393.048 302.189C392.32 301.94 391.556 301.816 390.757 301.816C389.852 301.816 388.982 302.002 388.147 302.375C387.313 302.748 386.585 303.254 385.963 303.893C385.342 304.532 384.845 305.269 384.472 306.104C384.099 306.938 383.912 307.808 383.912 308.714L383.886 308.741Z" fill="white"/>
<path fill-rule="evenodd" clip-rule="evenodd" d="M384.187 284.343C382.707 282.863 380.306 282.863 378.826 284.343L374.537 288.632C371.872 291.296 367.552 291.296 364.887 288.632L361.134 284.879C359.654 283.399 357.254 283.399 355.773 284.879C354.293 286.359 354.293 288.76 355.773 290.24L359.526 293.993C365.152 299.618 374.273 299.618 379.898 293.993L384.187 289.704C385.667 288.224 385.667 285.823 384.187 284.343Z" fill="white"/>
<path fill-rule="evenodd" clip-rule="evenodd" d="M355.237 332.593C356.718 334.073 359.118 334.073 360.598 332.593L364.887 328.304C367.552 325.639 371.872 325.639 374.537 328.304L378.29 332.057C379.77 333.537 382.17 333.537 383.651 332.057C385.131 330.576 385.131 328.176 383.651 326.695L379.898 322.943C374.272 317.317 365.152 317.317 359.526 322.943L355.237 327.232C353.757 328.712 353.757 331.112 355.237 332.593Z" fill="white"/>
<path fill-rule="evenodd" clip-rule="evenodd" d="M345.588 322.942C344.107 321.461 344.107 319.061 345.588 317.581L349.876 313.292C352.541 310.627 352.541 306.307 349.876 303.642L346.124 299.889C344.643 298.409 344.643 296.008 346.124 294.528C347.604 293.048 350.004 293.048 351.485 294.528L355.237 298.281C360.863 303.906 360.863 313.027 355.237 318.653L350.949 322.942C349.468 324.422 347.068 324.422 345.588 322.942Z" fill="white"/>
<rect x="120.345" y="280.633" width="20.4565" height="54.7943" rx="10.2283" fill="white"/>
<rect x="157.971" y="297.802" width="20.4565" height="54.7943" rx="10.2283" transform="rotate(90 157.971 297.802)" fill="white"/>
<path fill-rule="evenodd" clip-rule="evenodd" d="M67.5618 281.081C69.6097 281.081 71.2699 282.741 71.2699 284.789V290.722C71.2699 294.408 74.2582 297.397 77.9444 297.397H83.1357C85.1836 297.397 86.8438 299.057 86.8438 301.105C86.8438 303.153 85.1836 304.813 83.1357 304.813H77.9444C70.1624 304.813 63.8538 298.504 63.8538 290.722V284.789C63.8538 282.741 65.5139 281.081 67.5618 281.081Z" fill="white"/>
<path fill-rule="evenodd" clip-rule="evenodd" d="M54.2128 281.081C52.1649 281.081 50.5048 282.741 50.5048 284.789V290.722C50.5048 294.408 47.5165 297.397 43.8302 297.397H38.6389C36.591 297.397 34.9309 299.057 34.9309 301.105C34.9309 303.153 36.591 304.813 38.6389 304.813H43.8302C51.6123 304.813 57.9209 298.504 57.9209 290.722V284.789C57.9209 282.741 56.2607 281.081 54.2128 281.081Z" fill="white"/>
<path fill-rule="evenodd" clip-rule="evenodd" d="M67.5618 334.478C69.6097 334.478 71.2699 332.817 71.2699 330.769V324.837C71.2699 321.15 74.2582 318.162 77.9444 318.162H83.1357C85.1836 318.162 86.8438 316.502 86.8438 314.454C86.8438 312.406 85.1836 310.746 83.1357 310.746H77.9444C70.1624 310.746 63.8538 317.055 63.8538 324.837V330.769C63.8538 332.817 65.5139 334.478 67.5618 334.478Z" fill="white"/>
<path fill-rule="evenodd" clip-rule="evenodd" d="M54.2128 334.478C52.1649 334.478 50.5048 332.817 50.5048 330.769V324.837C50.5048 321.15 47.5165 318.162 43.8302 318.162H38.6389C36.591 318.162 34.9309 316.502 34.9309 314.454C34.9309 312.406 36.591 310.746 38.6389 310.746H43.8302C51.6123 310.746 57.9209 317.055 57.9209 324.837V330.769C57.9209 332.817 56.2607 334.478 54.2128 334.478Z" fill="white"/>
<path fill-rule="evenodd" clip-rule="evenodd" d="M222.787 282.03C224.835 282.03 226.495 283.69 226.495 285.738V291.671C226.495 295.357 229.484 298.346 233.17 298.346H238.361C240.409 298.346 242.069 300.006 242.069 302.054C242.069 304.102 240.409 305.762 238.361 305.762H233.17C225.388 305.762 219.079 299.453 219.079 291.671V285.738C219.079 283.69 220.74 282.03 222.787 282.03Z" fill="white" stroke="white" stroke-width="1.89921" stroke-linecap="round" stroke-linejoin="bevel"/>
<path fill-rule="evenodd" clip-rule="evenodd" d="M209.438 282.03C207.391 282.03 205.73 283.69 205.73 285.738V291.671C205.73 295.357 202.742 298.346 199.056 298.346H193.865C191.817 298.346 190.156 300.006 190.156 302.054C190.156 304.102 191.817 305.762 193.865 305.762H199.056C206.838 305.762 213.146 299.453 213.146 291.671V285.738C213.146 283.69 211.486 282.03 209.438 282.03Z" fill="white" stroke="white" stroke-width="1.89921" stroke-linecap="round" stroke-linejoin="bevel"/>
<path fill-rule="evenodd" clip-rule="evenodd" d="M222.787 335.426C224.835 335.426 226.495 333.766 226.495 331.718V325.785C226.495 322.099 229.484 319.11 233.17 319.11H238.361C240.409 319.11 242.069 317.45 242.069 315.402C242.069 313.354 240.409 311.694 238.361 311.694H233.17C225.388 311.694 219.079 318.003 219.079 325.785V331.718C219.079 333.766 220.74 335.426 222.787 335.426Z" fill="white" stroke="white" stroke-width="1.89921" stroke-linecap="round" stroke-linejoin="bevel"/>
<path fill-rule="evenodd" clip-rule="evenodd" d="M209.438 335.426C207.391 335.426 205.73 333.766 205.73 331.718V325.785C205.73 322.099 202.742 319.11 199.056 319.11H193.865C191.817 319.11 190.156 317.45 190.156 315.402C190.156 313.354 191.817 311.694 193.865 311.694H199.056C206.838 311.694 213.146 318.003 213.146 325.785V331.718C213.146 333.766 211.486 335.426 209.438 335.426Z" fill="white" stroke="white" stroke-width="1.89921" stroke-linecap="round" stroke-linejoin="bevel"/>
<path fill-rule="evenodd" clip-rule="evenodd" d="M275.833 285.131C277.282 283.683 279.629 283.683 281.077 285.131L285.273 289.326C287.879 291.933 292.105 291.933 294.712 289.326L298.383 285.655C299.831 284.207 302.179 284.207 303.627 285.655C305.075 287.103 305.075 289.451 303.627 290.899L299.956 294.57C294.453 300.073 285.531 300.073 280.029 294.57L275.833 290.375C274.385 288.927 274.385 286.579 275.833 285.131Z" fill="white"/>
<path fill-rule="evenodd" clip-rule="evenodd" d="M266.394 294.571C264.946 296.019 264.946 298.367 266.394 299.815L270.59 304.01C273.196 306.617 273.196 310.843 270.59 313.45L266.919 317.12C265.471 318.569 265.471 320.916 266.919 322.364C268.367 323.813 270.715 323.813 272.163 322.364L275.834 318.694C281.336 313.191 281.336 304.269 275.834 298.766L271.638 294.571C270.19 293.123 267.842 293.123 266.394 294.571Z" fill="white"/>
<path fill-rule="evenodd" clip-rule="evenodd" d="M313.591 322.889C315.039 321.441 315.039 319.093 313.591 317.645L309.396 313.45C306.789 310.843 306.789 306.617 309.396 304.01L313.067 300.34C314.515 298.891 314.515 296.544 313.067 295.096C311.619 293.647 309.271 293.647 307.823 295.096L304.152 298.766C298.649 304.269 298.649 313.191 304.152 318.694L308.347 322.889C309.795 324.337 312.143 324.337 313.591 322.889Z" fill="white"/>
<path fill-rule="evenodd" clip-rule="evenodd" d="M304.152 332.327C302.704 333.775 300.356 333.775 298.908 332.327L294.712 328.132C292.106 325.525 287.88 325.525 285.273 328.132L281.602 331.803C280.154 333.251 277.807 333.251 276.358 331.803C274.91 330.355 274.91 328.007 276.358 326.559L280.029 322.888C285.532 317.385 294.454 317.385 299.956 322.888L304.152 327.083C305.6 328.531 305.6 330.879 304.152 332.327Z" fill="white"/>
<path d="M365.065 393.517L365.73 346.588C365.73 320.103 341.372 298.177 311.327 298.177H126.125C85.6532 297.228 56.7756 328.849 57.051 360.974L57.2505 384.553C57.2505 384.553 67.16 404.102 120.662 413.089C142.479 416.754 171.582 415.676 210.162 415.463C257.692 415.2 281.193 419.046 304.41 415.463C346.25 409.006 365.065 393.517 365.065 393.517Z" fill="#D06348"/>
<path d="M324.422 148.149H322.523V175.688H324.422V148.149Z" fill="#FFFBF7"/>
<path d="M176.283 178.84V148.129C176.283 131.388 182.912 114.599 195.399 101.817C207.886 89.0356 224.637 82.6162 240.999 82.6162H279.069C286.466 82.6162 293.854 85.4745 299.495 91.1247C305.145 96.7748 307.851 105.046 307.851 112.453C307.861 112.453 230.411 184.376 176.283 178.84Z" fill="black"/>
<path d="M329.683 180.796C326.027 164.653 314.318 133.904 308.098 112.063H252.936C248.9 112.063 245.282 113.307 242.205 116.384C239.129 119.47 238.008 123.202 238.008 127.238V179.799L215.217 178.963V156.752C215.217 150.541 210.166 145.3 203.955 145.3H203.68C197.469 145.3 193.367 150.551 193.367 156.752V178.612L177.1 178.849L176.625 298.955C203.936 324.452 248.786 321.708 274.226 298.661L274.454 256.242L300.824 256.356C304.613 256.356 308.393 254.58 311.289 251.703C314.185 248.816 315.144 234.487 315.173 230.698C314.926 219.939 314.907 208.895 314.879 197.908C314.404 194.005 334.706 192.979 329.683 180.796Z" fill="#E1AC7B"/>
<path d="M323.472 148.148H211.694L213.442 150.997H275.992V166.618C275.992 173.152 281.224 179.485 287.805 179.485H302.837C309.114 179.485 315.876 173.36 315.876 166.618V150.997H323.472V148.148ZM313.027 166.618C313.027 171.794 307.842 176.637 302.837 176.637H287.805C282.668 176.637 278.841 171.708 278.841 166.618V150.997H313.027V166.618Z" fill="#ECFBF6"/>
<path d="M315.173 229.814H294.054C288.992 229.814 284.88 225.864 284.88 220.793C284.88 215.722 288.992 211.771 294.054 211.771H315.021L314.916 200.376H304.072H284.538H250.96C247.238 200.376 244.313 197.955 241.483 195.115C238.644 192.276 238.017 187.556 238.017 183.834V151.946H215.227V226.68C215.227 235.094 218.379 244.78 224.808 251.199C231.228 257.618 239.594 262.1 248.007 262.1H299.827C314.812 261.151 314.888 245.91 315.249 238.864L315.173 229.814Z" fill="black"/>
</svg>
